<?xml version="1.0" standalone="no"?>
<!DOCTYPE svg PUBLIC "-//W3C//DTD SVG 1.1//EN" "http://www.w3.org/Graphics/SVG/1.1/DTD/svg11.dtd" >
<svg xmlns="http://www.w3.org/2000/svg">
<metadata>Generated by IcoMoon</metadata>
<defs>
<font id="icomoon" horiz-adv-x="1024">
<font-face units-per-em="1024" ascent="960" descent="-64" />
<missing-glyph horiz-adv-x="1024" />
<glyph unicode="&#x20;" horiz-adv-x="512" d="" />
<glyph unicode="&#xe900;" d="M512-43.52c-271.459 0-491.52 220.061-491.52 491.52s220.061 491.52 491.52 491.52c271.459 0 491.52-220.061 491.52-491.52s-220.061-491.52-491.52-491.52z" />
<glyph unicode="&#xe901;" d="M468.555 448l-138.28 138.28c-11.997 11.997-11.997 31.448 0 43.445s31.448 11.997 43.445 0l138.28-138.28 147.888 147.888c11.997 11.997 31.448 11.997 43.445 0s11.997-31.448 0-43.445l-147.888-147.888 143.403-143.403c11.997-11.997 11.997-31.448 0-43.445s-31.448-11.997-43.445 0l-143.403 143.403-138.207-138.207c-11.997-11.997-31.448-11.997-43.445 0s-11.997 31.448 0 43.445l138.207 138.207zM164.443 100.443c-191.95 191.95-191.95 503.164 0 695.114s503.164 191.95 695.114 0c191.95-191.95 191.95-503.164 0-695.114s-503.164-191.95-695.114 0zM207.888 143.888c167.957-167.957 440.268-167.957 608.225 0s167.957 440.268 0 608.225c-167.957 167.957-440.268 167.957-608.225 0s-167.957-440.268 0-608.225z" />
<glyph unicode="&#xe902;" glyph-name="page" d="M726.974 51.764c-12.8-20.925-35.639-33.844-61.674-33.844h-511.4c-40.203 0-71.98 31.533-71.98 71.98v511.4c0 25.713 13.849 49.299 35.718 62.252 14.598 8.646 19.422 27.489 10.776 42.087s-27.489 19.422-42.087 10.776c-40.292-23.865-65.847-67.389-65.847-115.115v-511.4c0-74.486 59.39-133.42 133.42-133.42h511.4c47.52 0 90.168 24.124 114.085 63.223 8.853 14.473 4.298 33.383-10.175 42.236s-33.383 4.298-42.236-10.175zM225.28 806.1v-511.4c0-74.486 59.39-133.42 133.42-133.42h511.4c74.486 0 133.42 59.39 133.42 133.42v511.4c0 74.486-59.39 133.42-133.42 133.42h-511.4c-74.486 0-133.42-59.39-133.42-133.42zM286.72 806.1c0 40.203 31.533 71.98 71.98 71.98h511.4c40.203 0 71.98-31.533 71.98-71.98v-511.4c0-40.203-31.533-71.98-71.98-71.98h-511.4c-40.203 0-71.98 31.533-71.98 71.98v511.4z" />
<glyph unicode="&#xe903;" glyph-name="pos" horiz-adv-x="853" d="M113.429 326.31v506.901c0 32.949 26.681 59.629 59.668 59.629h502.719c33.109 0 59.668-26.463 59.668-59.629v-507.008l-308.782-272.241-313.273 272.348zM410.025 0.617c9.683-8.418 24.102-8.368 33.726 0.117l334.264 294.707c5.512 4.86 8.67 11.854 8.67 19.202v518.567c0 61.484-49.524 110.829-110.868 110.829h-502.719c-61.263 0-110.868-49.602-110.868-110.829v-518.567c0-7.411 3.211-14.458 8.804-19.32l338.992-294.707zM428.204 518.486l-110.592 182.784c-4.608 7.68-10.752 10.752-17.408 10.752-4.608 0-9.216-1.536-13.824-4.096-7.68-4.096-13.312-11.264-13.312-19.456 0-3.584 1.024-7.168 3.584-10.752l87.552-135.68h-71.168c-11.264 0-17.408-5.632-17.408-17.408s6.144-17.408 17.408-17.408h92.672l19.456-30.208v-24.064h-112.64c-11.776 0-17.408-5.12-17.408-16.896s6.144-17.408 17.408-17.408h112.64v-90.624c0-13.824 8.704-20.992 23.040-20.992 13.824 0 23.040 7.168 23.040 20.992v90.624h112.128c10.752 0 17.408 5.632 17.408 17.408 0 12.288-5.632 16.896-17.408 16.896h-112.128v23.552l18.944 30.72h93.696c10.752 0 17.408 5.632 17.408 17.92 0 11.776-6.144 16.896-17.408 16.896h-71.68l87.040 135.68c2.56 4.096 3.584 7.68 3.584 11.264 0 7.68-5.12 14.336-12.8 18.944-4.608 3.072-9.728 4.608-14.336 4.608-6.656 0-13.312-3.072-17.92-11.264l-109.568-182.784z" />
<glyph unicode="&#xe904;" glyph-name="preview" horiz-adv-x="1280" d="M640 230.4c120.177 0 217.6 97.423 217.6 217.6s-97.423 217.6-217.6 217.6c-120.177 0-217.6-97.423-217.6-217.6s97.423-217.6 217.6-217.6zM646.287 33.683c278.369 0 514.436 269.389 514.436 414.293 0 147.453-231.622 414.341-514.436 414.341-281.637 0-527.010-273.633-527.010-414.341 0-138.277 249.824-414.293 527.010-414.293zM640 307.2c-77.762 0-140.8 63.038-140.8 140.8s63.038 140.8 140.8 140.8c77.762 0 140.8-63.038 140.8-140.8s-63.038-140.8-140.8-140.8zM646.287 110.483c-232.968 0-450.21 240.017-450.21 337.493 0 100.045 212.968 337.541 450.21 337.541 237.789 0 437.636-230.275 437.636-337.541 0-104.579-204.104-337.493-437.636-337.493z" />
<glyph unicode="&#xe905;" glyph-name="right" horiz-adv-x="1280" d="M77.879 331.26l278.996-280.902c40.108-40.382 105.418-39.066 143.785 2.336l702.383 757.963c14.415 15.556 13.49 39.852-2.065 54.267s-39.852 13.49-54.267-2.065l-702.383-757.963c-8.755-9.447-23.694-9.748-32.962-0.417l-278.996 280.902c-14.945 15.047-39.258 15.13-54.305 0.185s-15.13-39.258-0.185-54.305z" />
<glyph unicode="&#xe906;" glyph-name="search" d="M409.6 161.28c214.905 0 389.12 174.215 389.12 389.12s-174.215 389.12-389.12 389.12c-214.905 0-389.12-174.215-389.12-389.12s174.215-389.12 389.12-389.12zM409.6 222.72c-180.973 0-327.68 146.707-327.68 327.68s146.707 327.68 327.68 327.68c180.973 0 327.68-146.707 327.68-327.68s-146.707-327.68-327.68-327.68zM660.883 274.265c-11.94 12.053-11.849 31.504 0.204 43.444s31.504 11.849 43.444-0.204l305.874-308.764c11.94-12.053 11.849-31.504-0.204-43.444s-31.504-11.849-43.444 0.204l-305.874 308.764z" />
<glyph unicode="&#xe907;" glyph-name="select" horiz-adv-x="410" d="M179.696 852.048c13.869 24.271 36.123 24.678 50.225 0l154.575-270.506c13.869-24.271 3.091-43.947-25.112-43.947h-309.15c-27.739 0-39.214 19.269-25.113 43.947l154.575 270.506zM179.696 43.952c13.869-24.271 36.123-24.678 50.225 0l154.575 270.506c13.869 24.271 3.091 43.947-25.112 43.947h-309.15c-27.739 0-39.214-19.269-25.113-43.947l154.575-270.506z" />
<glyph unicode="&#xe908;" glyph-name="share" d="M642.57 702.346c-1.198-0.429-2.383-0.938-3.548-1.527l-285.183-144.348c-33.517 45.974-87.789 75.849-149.039 75.849-101.797 0-184.32-82.523-184.32-184.32s82.523-184.32 184.32-184.32c61.67 0 116.267 30.287 149.726 76.798l288.051-142.739c0.364-0.18 0.73-0.353 1.098-0.518-5.711-17.782-8.796-36.741-8.796-56.421 0-101.797 82.523-184.32 184.32-184.32s184.32 82.523 184.32 184.32c0 101.797-82.523 184.32-184.32 184.32-60.182 0-113.627-28.842-147.266-73.458-0.672 0.399-1.364 0.776-2.076 1.129l-288.28 142.852c4.908 16.597 7.542 34.169 7.542 52.357 0 18.598-2.755 36.553-7.878 53.479l285.526 144.522c0.961 0.486 1.885 1.016 2.771 1.586 33.465-46.459 88.031-76.706 149.66-76.706 101.797 0 184.32 82.523 184.32 184.32s-82.523 184.32-184.32 184.32c-101.797 0-184.32-82.523-184.32-184.32 0-18.37 2.687-36.111 7.69-52.854zM204.8 325.12c-67.865 0-122.88 55.015-122.88 122.88s55.015 122.88 122.88 122.88c67.865 0 122.88-55.015 122.88-122.88s-55.015-122.88-122.88-122.88zM819.2 17.92c-67.865 0-122.88 55.015-122.88 122.88s55.015 122.88 122.88 122.88c67.865 0 122.88-55.015 122.88-122.88s-55.015-122.88-122.88-122.88zM819.2 632.32c-67.865 0-122.88 55.015-122.88 122.88s55.015 122.88 122.88 122.88c67.865 0 122.88-55.015 122.88-122.88s-55.015-122.88-122.88-122.88z" />
<glyph unicode="&#xe909;" glyph-name="shop" horiz-adv-x="1229" d="M103.39 541.292l96.091 242.251c20.466 51.596 84.872 95.328 139.521 95.099l561.965-2.348c54.973-0.23 118.342-44.132 138.143-95.722l86.175-224.528c6.079-15.84 23.848-23.752 39.688-17.673s23.752 23.848 17.673 39.688l-86.175 224.528c-28.868 75.215-114.89 134.811-195.247 135.147l-561.965 2.348c-79.979 0.334-167.119-58.834-196.889-133.885l-96.091-242.251c-6.256-15.771 1.458-33.627 17.229-39.882s33.627 1.458 39.882 17.229zM168.605 493.477c14.049-10.593 37.877-25.875 68.714-41.102 52.077-25.715 105.287-41.261 157.271-41.261 51.343 0 82.053 11.74 132.984 42.513l3.908 2.361c39.238 23.693 59.010 31.298 92.317 31.298 33.934 0 52.705-7.572 92.195-32.528l1.276-0.806c49.432-31.242 78.261-42.838 128.020-42.838 50.738 0 99.546 15.924 144.91 42.231 26.925 15.614 46.996 31.324 58.643 42.374 12.309 11.677 12.821 31.121 1.144 43.43s-31.121 12.821-43.43 1.144c-8.426-7.993-24.848-20.848-47.18-33.798-36.731-21.3-75.474-33.941-114.088-33.941-35.434 0-54.738 7.765-95.196 33.335l-1.277 0.807c-48.471 30.632-76.73 42.030-125.018 42.030-47.056 0-76.087-11.165-124.076-40.143l-3.922-2.37c-42.188-25.491-63.556-33.659-101.21-33.659-41.173 0-85.734 13.019-130.068 34.911-27.010 13.338-47.72 26.62-58.928 35.070-13.547 10.214-32.809 7.513-43.024-6.034s-7.513-32.809 6.034-43.024zM177.405 317.535v-177.073c0-101.938 82.794-184.544 184.898-184.544h501.207c102.198 0 184.898 82.397 184.898 184.544v177.073c0 16.966-13.754 30.72-30.72 30.72s-30.72-13.754-30.72-30.72v-177.073c0-68.164-55.142-123.104-123.458-123.104h-501.207c-68.203 0-123.458 55.13-123.458 123.104v177.073c0 16.966-13.754 30.72-30.72 30.72s-30.72-13.754-30.72-30.72z" />
<glyph unicode="&#xe90a;" glyph-name="tool" d="M686.080 806.401c-0.004 8.641-1.595 16.956-4.501 24.668-10.276 27.27-36.994 47.011-68.138 47.011h-202.881c-30.16 0-55.491-17.436-66.602-42.657-3.89-8.831-6.037-18.617-6.037-28.943h-61.44l8.6 47.285c19.054 50.267 67.741 85.756 125.48 85.756h202.881c57.036 0 105.974-35.778 125.281-85.815l8.792-47.304h123.137c73.16 0 132.869-60.187 132.869-133.131v-578.539c0-73.518-59.448-133.131-132.869-133.131h-717.303c-73.16 0-132.869 60.187-132.869 133.131v578.539c0 73.518 59.448 133.131 132.869 133.131h532.731zM81.92 673.271v-578.539c0-39.189 32.378-71.691 71.429-71.691h717.303c39.441 0 71.429 32.058 71.429 71.691v578.539c0 39.189-32.378 71.691-71.429 71.691h-717.303c-39.441 0-71.429-32.058-71.429-71.691zM942.080 485.143h-128.132c0.087-0.945 0.132-1.902 0.132-2.869v-71.191c0-16.966-13.754-30.72-30.72-30.72s-30.72 13.754-30.72 30.72v71.191c0 0.967 0.045 1.924 0.132 2.869h-481.573c0.089-0.957 0.133-1.927 0.132-2.907l-0.089-71.191c-0.021-16.966-13.792-30.703-30.758-30.682s-30.703 13.792-30.682 30.758l0.089 71.191c0.001 0.954 0.046 1.898 0.132 2.83h-128.104v61.44h860.16v-61.44zM686.080 806.401v-0.032c0 0.011 0 0.021 0 0.032z" />
<glyph unicode="&#xe90b;" glyph-name="wechat" horiz-adv-x="1331" d="M972.8 38.4c-197.939 0-358.4 126.077-358.4 281.6s160.461 281.6 358.4 281.6c197.939 0 358.4-126.077 358.4-281.6 0-97.101-62.549-182.723-157.717-233.349-10.941-5.82 40.823-75.564 19.598-88.283s-85.775 60.15-102.752 55.522c-36.818-10.037-76.363-15.49-117.529-15.49zM829.441 376.321c22.622 0 40.96 18.338 40.96 40.96s-18.338 40.96-40.96 40.96c-22.622 0-40.96-18.338-40.96-40.96s18.338-40.96 40.96-40.96zM1064.96 376.321c22.622 0 40.96 18.338 40.96 40.96s-18.338 40.96-40.96 40.96c-22.622 0-40.96-18.338-40.96-40.96s18.338-40.96 40.96-40.96zM537.6 231.263c212.077 0 384 140.21 384 313.168s-171.923 313.168-384 313.168c-212.077 0-384-140.21-384-313.168 0-107.986 67.017-203.207 168.982-259.508 11.723-6.473-31.786-86.732-20.998-98.18s91.902 66.893 110.092 61.746c39.448-11.162 81.817-17.227 125.924-17.227zM92.16 544.432c0 209.969 201.877 374.608 445.44 374.608s445.44-164.64 445.44-374.608c0-209.969-201.877-374.608-445.44-374.608-49.031 0-97.061 6.647-142.652 19.548 19.385-5.485 21.935-4.492 27.001-1.411-6.123-3.724-13.755-9.070-27.817-19.363-23.020-16.861-29.981-21.802-40.228-28.078-8.892-5.446-16.829-9.501-25.479-12.379-23.949-7.968-61.037-30.797-86.33 0s-7.624 61.060 0 91.727c2.505 10.076 5.605 19.427 11.459 35.674-100.31 69.683-161.394 174.217-161.394 288.889zM696.319 627.2c28.277 0 51.2 22.923 51.2 51.2s-22.923 51.2-51.2 51.2c-28.277 0-51.2-22.923-51.2-51.2s22.923-51.2 51.2-51.2zM384 627.2c28.277 0 51.2 22.923 51.2 51.2s-22.923 51.2-51.2 51.2c-28.277 0-51.2-22.923-51.2-51.2s22.923-51.2 51.2-51.2z" />
<glyph unicode="&#xe90c;" glyph-name="wechatpay" horiz-adv-x="1138" d="M412.237 353.362c-5.12-2.531-10.92-3.923-17.021-3.923-14.15 0-26.483 7.52-32.956 18.551l-2.511 5.231-103.093 217.067c-1.138 2.334-1.831 5.015-1.831 7.631 0 10.005 8.455 18.133 18.852 18.133 4.231 0 8.154-1.347 11.358-3.596l121.729-83.11c8.873-5.597 19.512-8.847 30.929-8.847 6.827 0 13.32 1.177 19.381 3.289l572.551 244.406c-102.688 116.001-271.654 191.807-462.919 191.807-313.020 0-566.705-202.812-566.705-452.953 0-136.468 76.329-259.289 195.796-342.314 9.547-6.578 15.844-17.348 15.844-29.491 0-4.093-0.889-7.755-1.962-11.594-9.566-34.153-24.848-88.779-25.567-91.33-1.216-4.27-3.047-8.736-3.047-13.209 0-10.044 8.474-18.133 18.871-18.133 4.1 0 7.435 1.439 10.92 3.335l124.070 68.705c9.351 5.185 19.179 8.389 30.099 8.389 5.774 0 11.358-0.87 16.655-2.354 57.844-15.975 120.336-24.894 184.987-24.894 313.020-0.020 566.751 202.799 566.751 452.888 0 75.832-23.455 147.153-64.585 209.881l-656.596-363.566z" />
<glyph unicode="&#xe90d;" glyph-name="msg" d="M512 79.36c270.56 0 491.52 191.499 491.52 430.080s-220.96 430.080-491.52 430.080c-270.56 0-491.52-191.499-491.52-430.080 0-133.028 69.325-255.685 185.392-336.58-3.141 2.189-5.121-25.154-14.275-71.398-19.802-100.045-21.035-124.107 21.434-139.397 32.39-11.661 60.146 3.375 145.974 61.699l3.244 2.205c59.012 40.136 87.542 56.772 93.234 56.202 18.67-1.869 37.53-2.811 56.517-2.811zM512 140.8c-16.943 0-33.76 0.84-50.396 2.506-28.884 2.892-49.548-9.158-133.908-66.534l-3.224-2.192c-54.624-37.12-88.504-55.473-90.628-54.709 7.696-2.771 7.541-2.25 7.983 6.377 0.71 13.859 3.169 28.563 10.015 63.152 17.955 90.712 19.547 112.686-10.839 133.864-100.168 69.814-159.083 174.053-159.083 286.175 0 202.54 191.654 368.64 430.080 368.64s430.080-166.1 430.080-368.64c0-202.54-191.654-368.64-430.080-368.64zM658.431 458.241c-28.277 0-51.2 22.923-51.2 51.2s22.923 51.2 51.2 51.2c28.277 0 51.2-22.923 51.2-51.2s-22.923-51.2-51.2-51.2zM368.638 458.241c-28.277 0-51.2 22.923-51.2 51.2s22.923 51.2 51.2 51.2c28.277 0 51.2-22.923 51.2-51.2s-22.923-51.2-51.2-51.2z" />
<glyph unicode="&#xe90e;" glyph-name="o-ban" d="M793.626 122.929l-606.697 606.697c-146.681-168.957-139.694-425.086 20.958-585.739s416.782-167.639 585.739-20.958zM837.071 166.374c146.681 168.957 139.694 425.086-20.958 585.739s-416.782 167.639-585.739 20.958l606.697-606.697zM164.443 100.443c-191.95 191.95-191.95 503.164 0 695.114s503.164 191.95 695.114 0c191.95-191.95 191.95-503.164 0-695.114s-503.164-191.95-695.114 0z" />
<glyph unicode="&#xe90f;" glyph-name="o-billing" d="M512-43.52c-271.459 0-491.52 220.061-491.52 491.52s220.061 491.52 491.52 491.52c271.459 0 491.52-220.061 491.52-491.52s-220.061-491.52-491.52-491.52zM512 17.92c237.527 0 430.080 192.553 430.080 430.080s-192.553 430.080-430.080 430.080c-237.527 0-430.080-192.553-430.080-430.080s192.553-430.080 430.080-430.080zM512.307 445.542l-132.71 219.341c-5.53 9.216-12.902 12.902-20.89 12.902-5.53 0-11.059-1.843-16.589-4.915-9.216-4.915-15.974-13.517-15.974-23.347 0-4.301 1.229-8.602 4.301-12.902l105.062-162.816h-85.402c-13.517 0-20.89-6.758-20.89-20.89s7.373-20.89 20.89-20.89h111.206l23.347-36.25v-28.877h-135.168c-14.131 0-20.89-6.144-20.89-20.275s7.373-20.89 20.89-20.89h135.168v-108.749c0-16.589 10.445-25.19 27.648-25.19 16.589 0 27.648 8.602 27.648 25.19v108.749h134.554c12.902 0 20.89 6.758 20.89 20.89 0 14.746-6.758 20.275-20.89 20.275h-134.554v28.262l22.733 36.864h112.435c12.902 0 20.89 6.758 20.89 21.504 0 14.131-7.373 20.275-20.89 20.275h-86.016l104.448 162.816c3.072 4.915 4.301 9.216 4.301 13.517 0 9.216-6.144 17.203-15.36 22.733-5.53 3.686-11.674 5.53-17.203 5.53-7.987 0-15.974-3.686-21.504-13.517l-131.482-219.341z" />
<glyph unicode="&#xe910;" glyph-name="o-done" d="M512-23.040c-271.459 0-491.52 220.061-491.52 491.52s220.061 491.52 491.52 491.52c271.459 0 491.52-220.061 491.52-491.52s-220.061-491.52-491.52-491.52zM308.032 475.017c-12.177 11.814-31.625 11.52-43.44-0.657s-11.52-31.625 0.657-43.44l117.758-114.251c22.443-21.774 58.031-22.293 80.079 0.102l296.164 300.816c11.903 12.090 11.752 31.54-0.338 43.443s-31.54 11.752-43.443-0.338l-292.548-297.142-114.889 111.467z" />
<glyph unicode="&#xe911;" glyph-name="o-help" d="M512-43.52c-271.459 0-491.52 220.061-491.52 491.52s220.061 491.52 491.52 491.52c271.459 0 491.52-220.061 491.52-491.52s-220.061-491.52-491.52-491.52zM512 17.92c237.527 0 430.080 192.553 430.080 430.080s-192.553 430.080-430.080 430.080c-237.527 0-430.080-192.553-430.080-430.080s192.553-430.080 430.080-430.080zM528.282 380.263c0 47.309 17.203 60.826 68.198 96.461 47.309 33.178 72.499 61.44 72.499 112.435 0 74.957-58.368 122.266-149.299 122.266-53.453 0-90.317-13.517-116.736-35.635-22.118-18.432-37.478-43.008-46.080-70.042-1.229-3.686-1.843-7.373-1.843-10.445 0-13.517 11.059-20.89 22.733-23.962 3.686-0.614 7.373-1.229 11.059-1.229 11.059 0 20.89 5.53 25.805 20.275 14.131 41.779 45.466 70.656 101.99 70.656 58.368 0 93.389-28.877 93.389-74.342 0-31.334-13.517-47.309-58.982-79.258-36.25-24.576-43.008-30.72-55.296-46.694-16.589-20.89-22.733-41.165-22.733-79.872v-17.203c0-15.974 12.288-23.962 28.262-23.962 15.36 0 27.034 7.987 27.034 23.962v16.589zM500.019 269.363c-23.962 0-42.394-16.589-42.394-42.394s18.432-42.394 42.394-42.394c23.347 0 42.394 16.589 42.394 42.394s-19.046 42.394-42.394 42.394z" />
<glyph unicode="&#xe912;" glyph-name="o-math-add" d="M481.28 417.28h-195.557c-16.966 0-30.72 13.754-30.72 30.72s13.754 30.72 30.72 30.72h195.557v209.146c0 16.966 13.754 30.72 30.72 30.72s30.72-13.754 30.72-30.72v-209.146h202.802c16.966 0 30.72-13.754 30.72-30.72s-13.754-30.72-30.72-30.72h-202.802v-195.454c0-16.966-13.754-30.72-30.72-30.72s-30.72 13.754-30.72 30.72v195.454zM512-43.52c-271.459 0-491.52 220.061-491.52 491.52s220.061 491.52 491.52 491.52c271.459 0 491.52-220.061 491.52-491.52s-220.061-491.52-491.52-491.52zM512 17.92c237.527 0 430.080 192.553 430.080 430.080s-192.553 430.080-430.080 430.080c-237.527 0-430.080-192.553-430.080-430.080s192.553-430.080 430.080-430.080z" />
<glyph unicode="&#xe913;" glyph-name="o-math-minus" d="M512-43.52c-271.459 0-491.52 220.061-491.52 491.52s220.061 491.52 491.52 491.52c271.459 0 491.52-220.061 491.52-491.52s-220.061-491.52-491.52-491.52zM512 17.92c237.527 0 430.080 192.553 430.080 430.080s-192.553 430.080-430.080 430.080c-237.527 0-430.080-192.553-430.080-430.080s192.553-430.080 430.080-430.080zM285.723 417.28h459.8c16.966 0 30.72 13.754 30.72 30.72s-13.754 30.72-30.72 30.72h-459.8c-16.966 0-30.72-13.754-30.72-30.72s13.754-30.72 30.72-30.72z" />
<glyph unicode="&#xe914;" glyph-name="o-pingtuan" d="M658.715 583.24c17.486 28.414 33.878 60.107 45.353 89.067 1.639 3.825 2.186 7.104 2.186 10.382 0 8.743-5.464 14.207-15.3 16.939-3.279 1.093-6.011 1.639-8.743 1.639-8.743 0-15.3-4.371-18.578-14.207-10.928-30.6-26.775-66.664-49.178-103.821h-164.474c-10.382 0-15.846-7.104-15.846-18.578s5.464-18.578 15.846-18.578h59.014v-20.764c0-34.425-0.546-62.292-1.639-86.335h-69.942c-9.836 0-15.3-7.65-15.3-18.578 0-12.021 5.464-19.125 15.3-19.125h67.757c-1.639-15.846-4.371-28.961-7.104-40.435-13.661-53.55-40.435-93.985-80.324-123.492-6.557-4.918-9.289-10.928-9.289-16.393s2.186-10.928 6.011-14.753c3.825-5.464 9.289-7.65 15.3-7.65 5.464 0 11.475 2.186 16.939 6.557 45.353 34.425 74.314 81.964 90.707 144.803 3.825 14.207 6.011 31.146 8.196 51.364h90.16v-190.156c0-10.928 7.65-16.393 20.218-16.393 13.114 0 20.764 5.464 20.764 16.393v190.156h75.953c9.836 0 15.3 7.104 15.3 19.125 0 11.475-5.464 18.578-15.3 18.578h-75.953v107.099h66.117c10.382 0 15.846 7.104 15.846 18.578s-5.464 18.578-15.846 18.578h-84.149zM549.977 546.083h85.789v-107.099h-87.428c1.093 24.589 1.639 52.457 1.639 85.242v21.857zM368.564 592.529v92.892c0 10.382-8.196 15.846-20.764 15.846-12.021 0-20.218-5.464-20.218-15.846v-92.892h-56.282c-9.836 0-14.753-7.65-14.753-18.578 0-11.475 4.918-19.125 14.753-19.125h56.282v-127.317c-20.764-8.196-41.528-15.846-61.2-22.403-6.557-1.639-10.382-7.65-10.382-15.3 0-2.732 0.546-5.464 1.639-8.743 3.279-9.289 9.836-13.114 16.393-13.114 2.732 0 4.918 0.546 7.65 1.093 14.207 5.464 30.053 10.928 45.9 17.486v-130.596c0-15.846-2.186-19.125-17.486-19.125-7.65 0-16.393 1.093-22.95 1.639h-3.825c-8.743 0-15.3-3.825-16.939-14.753-0.546-1.639-0.546-3.279-0.546-4.918 0-9.836 5.464-16.939 14.207-18.578 9.836-2.186 21.311-2.732 33.878-2.732 38.796 0 54.642 12.021 54.642 49.725v156.824c14.207 7.104 28.414 13.661 42.075 21.311 6.011 3.279 10.382 8.743 10.382 15.3 0 3.279-0.546 6.557-2.186 9.836-3.279 6.557-8.743 9.836-14.753 9.836-2.732 0-5.464-0.546-8.196-2.186-8.743-4.371-18.032-8.743-27.321-13.114v109.831h37.157c9.836 0 15.3 7.65 15.3 19.125 0 10.928-5.464 18.578-15.3 18.578h-37.157zM512-43.52c-271.459 0-491.52 220.061-491.52 491.52s220.061 491.52 491.52 491.52c271.459 0 491.52-220.061 491.52-491.52s-220.061-491.52-491.52-491.52zM512 17.92c237.527 0 430.080 192.553 430.080 430.080s-192.553 430.080-430.080 430.080c-237.527 0-430.080-192.553-430.080-430.080s192.553-430.080 430.080-430.080zM494.241 694.711c-7.104-3.825-10.382-9.289-10.382-15.3 0-3.825 1.639-7.65 4.371-12.021 10.382-15.3 25.136-42.075 34.971-61.746 3.279-6.557 8.196-9.836 14.753-9.836 3.825 0 7.104 1.093 11.475 2.732 7.104 3.825 12.021 9.289 12.021 16.939 0 2.732-0.546 6.011-2.732 9.836-9.836 22.403-24.043 45.353-36.61 63.385-4.371 5.464-10.382 8.743-16.393 8.743-3.825 0-7.65-1.093-11.475-2.732z" />
<glyph unicode="&#xe915;" glyph-name="o-points" d="M512-43.52c-271.459 0-491.52 220.061-491.52 491.52s220.061 491.52 491.52 491.52c271.459 0 491.52-220.061 491.52-491.52s-220.061-491.52-491.52-491.52zM512 17.92c237.527 0 430.080 192.553 430.080 430.080s-192.553 430.080-430.080 430.080c-237.527 0-430.080-192.553-430.080-430.080s192.553-430.080 430.080-430.080zM544.797 200.318c93.694 8.626 145.072 64.862 145.072 137.704 0 89.088-52.224 121.651-148.070 141.926l-45.466 9.216c-68.813 13.517-90.317 36.25-90.317 80.486 0 40.55 32.563 76.186 103.834 76.186 68.198 0 94.003-34.406 103.834-69.427 4.915-12.902 15.974-17.818 27.034-17.818 3.686 0 7.373 0.614 10.445 1.229 12.288 2.458 22.733 11.674 22.733 24.576 0 3.072-0.614 6.144-1.843 9.216-11.982 39.212-43.274 90.011-127.254 101.045v41.199c0 16.966-13.754 30.72-30.72 30.72s-30.72-13.754-30.72-30.72v-40.202c-96.392-8.885-136.938-66.664-136.938-126.003 0-80.486 41.779-115.507 133.939-134.554l49.152-10.445c72.499-14.746 100.147-36.864 100.147-87.245 0-52.838-43.622-86.63-113.664-86.63-89.702 0-109.978 46.080-121.037 87.245-3.686 12.902-15.36 18.432-27.034 18.432-3.686 0-6.758-0.614-10.445-1.229-12.902-3.072-23.347-12.288-23.347-25.805 0-2.458 0.614-4.915 1.229-7.987 13.397-45.216 38.46-109.198 147.997-120.52v-31.441c0-16.966 13.754-30.72 30.72-30.72s30.72 13.754 30.72 30.72v30.846z" />
<glyph unicode="&#xe916;" glyph-name="o-postsale" horiz-adv-x="1126" d="M1009.42 616.434v143.885c0 16.966 13.754 30.72 30.72 30.72s30.72-13.754 30.72-30.72v-190.413c0-28.949-22.922-51.251-51.199-51.251h-190.22c-16.966 0-30.72 13.754-30.72 30.72s13.754 30.72 30.72 30.72h130.407c-3.838 4.937-8.244 10.583-13.131 16.813-19.367 24.692-39.102 49.379-58.011 72.383-5.162 6.269-5.162 6.269-10.338 12.504-26.018 31.28-47.648 55.789-63.063 71.123-80.087 79.666-188.058 125.162-303.305 125.162-237.527 0-430.080-192.553-430.080-430.080s192.553-430.080 430.080-430.080c179.228 0 337.737 110.648 401.296 275.040 6.118 15.825 23.906 23.693 39.731 17.575s23.693-23.906 17.575-39.731c-72.638-187.876-253.781-314.324-458.602-314.324-271.459 0-491.52 220.061-491.52 491.52s220.061 491.52 491.52 491.52c131.652 0 255.149-52.038 346.635-143.043 17.113-17.023 39.809-42.739 66.969-75.393 5.295-6.38 5.295-6.38 10.565-12.779 19.24-23.406 39.256-48.445 58.891-73.479 5.397-6.881 10.221-13.065 14.359-18.392zM518.963 458.445l-132.71 219.341c-5.53 9.216-12.902 12.902-20.89 12.902-5.53 0-11.059-1.843-16.589-4.915-9.216-4.915-15.974-13.517-15.974-23.347 0-4.301 1.229-8.602 4.301-12.902l105.062-162.816h-85.402c-13.517 0-20.89-6.758-20.89-20.89s7.373-20.89 20.89-20.89h111.206l23.347-36.25v-28.877h-135.168c-14.131 0-20.89-6.144-20.89-20.275s7.373-20.89 20.89-20.89h135.168v-108.749c0-16.589 10.445-25.19 27.648-25.19 16.589 0 27.648 8.602 27.648 25.19v108.749h134.554c12.902 0 20.89 6.758 20.89 20.89 0 14.746-6.758 20.275-20.89 20.275h-134.554v28.262l22.733 36.864h112.435c12.902 0 20.89 6.758 20.89 21.504 0 14.131-7.373 20.275-20.89 20.275h-86.016l104.448 162.816c3.072 4.915 4.301 9.216 4.301 13.517 0 9.216-6.144 17.203-15.36 22.733-5.53 3.686-11.674 5.53-17.203 5.53-7.987 0-15.974-3.686-21.504-13.517l-131.482-219.341z" />
<glyph unicode="&#xe917;" glyph-name="o-refresh" horiz-adv-x="1126" d="M1009.42 616.434v143.885c0 16.966 13.754 30.72 30.72 30.72s30.72-13.754 30.72-30.72v-190.413c0-28.949-22.922-51.251-51.199-51.251h-190.22c-16.966 0-30.72 13.754-30.72 30.72s13.754 30.72 30.72 30.72h130.407c-3.838 4.937-8.244 10.583-13.131 16.813-19.367 24.692-39.102 49.379-58.011 72.383-5.162 6.269-5.162 6.269-10.338 12.504-26.018 31.28-47.648 55.789-63.063 71.123-80.087 79.666-188.058 125.162-303.305 125.162-237.527 0-430.080-192.553-430.080-430.080s192.553-430.080 430.080-430.080c179.228 0 337.737 110.648 401.296 275.040 6.118 15.825 23.906 23.693 39.731 17.575s23.693-23.906 17.575-39.731c-72.638-187.876-253.781-314.324-458.602-314.324-271.459 0-491.52 220.061-491.52 491.52s220.061 491.52 491.52 491.52c131.652 0 255.149-52.038 346.635-143.043 17.113-17.023 39.809-42.739 66.969-75.393 5.295-6.38 5.295-6.38 10.565-12.779 19.24-23.406 39.256-48.445 58.891-73.479 5.397-6.881 10.221-13.065 14.359-18.392z" />
<glyph unicode="&#xe918;" glyph-name="o-undone" d="M512-43.52c-271.459 0-491.52 220.061-491.52 491.52s220.061 491.52 491.52 491.52c271.459 0 491.52-220.061 491.52-491.52s-220.061-491.52-491.52-491.52zM512 17.92c237.527 0 430.080 192.553 430.080 430.080s-192.553 430.080-430.080 430.080c-237.527 0-430.080-192.553-430.080-430.080s192.553-430.080 430.080-430.080zM311.002 454.537c-12.177 11.814-31.625 11.52-43.44-0.657s-11.52-31.625 0.657-43.44l117.758-114.251c22.443-21.774 58.031-22.293 80.079 0.102l296.164 300.816c11.903 12.090 11.752 31.54-0.338 43.443s-31.54 11.752-43.443-0.338l-292.548-297.142-114.889 111.467z" />
<glyph unicode="&#xe919;" glyph-name="open" d="M944.353 835.145l-414.3-414.3h-43.445c-11.997 11.997-11.997 31.448 0 43.445l414.726 414.726h-198.624c-16.966 0-30.72 13.754-30.72 30.72s13.754 30.72 30.72 30.72h272.538c16.994 0 30.76-13.798 30.72-30.792l-0.627-265.873c-0.040-16.966-13.826-30.687-30.792-30.647s-30.687 13.826-30.647 30.792l0.451 191.209zM939.631 393.224v-304.267c0-39.798-31.997-71.973-71.429-71.973h-717.303c-39.461 0-71.429 31.961-71.429 71.429v717.303c0 39.171 32.426 71.429 71.478 71.429h302.8c16.966 0 30.72 13.754 30.72 30.72s-13.754 30.72-30.72 30.72h-302.8c-72.913 0-132.918-59.693-132.918-132.869v-717.303c0-73.403 59.478-132.869 132.869-132.869h717.303c73.44 0 132.869 59.758 132.869 133.413v304.267c0 16.966-13.754 30.72-30.72 30.72s-30.72-13.754-30.72-30.72z" />
<glyph unicode="&#xe91a;" glyph-name="orders" horiz-adv-x="853" d="M652.847 831.999h29.058c33.44 0 60.495-26.676 60.495-59.188v-666.69c0-32.448-26.956-59.188-59.48-59.188h-512.507c-32.813 0-59.48 26.607-59.48 59.188v666.69c0 32.43 27.23 59.188 60.366 59.188h46.239c14.138 0 25.6 11.462 25.6 25.6s-11.462 25.6-25.6 25.6h-46.239c-61.214 0-111.566-49.478-111.566-110.388v-666.69c0-60.884 49.616-110.388 110.68-110.388h512.507c60.709 0 110.68 49.57 110.68 110.388v666.69c0 60.952-50.139 110.388-111.695 110.388h-29.058c-14.138 0-25.6-11.462-25.6-25.6s11.462-25.6 25.6-25.6zM349.661 832h158.501c14.138 0 25.6 11.462 25.6 25.6s-11.462 25.6-25.6 25.6h-158.501c-14.138 0-25.6-11.462-25.6-25.6s11.462-25.6 25.6-25.6zM264.328 482.133h329.167c14.138 0 25.6 11.462 25.6 25.6s-11.462 25.6-25.6 25.6h-329.167c-14.138 0-25.6-11.462-25.6-25.6s11.462-25.6 25.6-25.6zM264.328 290.133h329.167c14.138 0 25.6 11.462 25.6 25.6s-11.462 25.6-25.6 25.6h-329.167c-14.138 0-25.6-11.462-25.6-25.6s11.462-25.6 25.6-25.6z" />
<glyph unicode="&#xe91b;" glyph-name="overview" d="M132.267 767.201c0 33.719 26.657 60.533 60.533 60.533h169.068c33.719 0 60.533-26.657 60.533-60.533v-169.068c0-33.719-26.657-60.533-60.533-60.533h-169.068c-33.719 0-60.533 26.657-60.533 60.533v169.068zM81.067 767.201v-169.068c0-62.22 49.804-111.733 111.733-111.733h169.068c62.22 0 111.733 49.804 111.733 111.733v169.068c0 62.22-49.804 111.733-111.733 111.733h-169.068c-62.22 0-111.733-49.804-111.733-111.733zM550.401 767.201v-169.068c0-62.22 49.804-111.733 111.733-111.733h169.068c62.22 0 111.733 49.804 111.733 111.733v169.068c0 62.22-49.804 111.733-111.733 111.733h-169.068c-62.22 0-111.733-49.804-111.733-111.733zM601.601 767.201c0 33.719 26.657 60.533 60.533 60.533h169.068c33.719 0 60.533-26.657 60.533-60.533v-169.068c0-33.719-26.657-60.533-60.533-60.533h-169.068c-33.719 0-60.533 26.657-60.533 60.533v169.068zM81.067 297.866v-169.068c0-62.22 49.804-111.733 111.733-111.733h169.068c62.22 0 111.733 49.804 111.733 111.733v169.068c0 62.22-49.804 111.733-111.733 111.733h-169.068c-62.22 0-111.733-49.804-111.733-111.733zM132.267 297.866c0 33.719 26.657 60.533 60.533 60.533h169.068c33.719 0 60.533-26.657 60.533-60.533v-169.068c0-33.719-26.657-60.533-60.533-60.533h-169.068c-33.719 0-60.533 26.657-60.533 60.533v169.068zM550.401 297.866v-169.068c0-62.22 49.804-111.733 111.733-111.733h169.068c62.22 0 111.733 49.804 111.733 111.733v169.068c0 62.22-49.804 111.733-111.733 111.733h-169.068c-62.22 0-111.733-49.804-111.733-111.733zM601.601 297.866c0 33.719 26.657 60.533 60.533 60.533h169.068c33.719 0 60.533-26.657 60.533-60.533v-169.068c0-33.719-26.657-60.533-60.533-60.533h-169.068c-33.719 0-60.533 26.657-60.533 60.533v169.068z" />
<glyph unicode="&#xe91c;" glyph-name="notification-off" horiz-adv-x="1138" d="M568.889 868.978c-173.065 0-302.778-133.758-345.813-345.044-36.441-178.894-71.32-291.233-116.972-373.868l-27.975-50.639h981.519l-27.975 50.639c-45.651 82.635-80.53 194.975-116.972 373.869-43.049 211.294-172.753 345.043-345.813 345.043zM530.243 102.115h-73.359c0 0-3.669-16.978-3.669-26.936 0-63.656 52.104-114.812 115.674-114.812s115.674 51.156 115.674 114.812c0 10.759-4.269 26.936-4.269 26.936h-150.050c0-0.001 0 0 0 0h74.755c0 0 11.298-15.453 11.298-26.936 0-25.67-21.262-46.545-47.407-46.545s-47.407 20.876-47.407 46.545c0 9.976 8.666 26.751 8.761 26.934zM191.108 167.693c37.488 83.274 67.826 190.261 98.861 342.615 37.105 182.174 142.062 290.403 278.92 290.403 136.854 0 241.802-108.222 278.92-290.404 31.035-152.352 61.373-259.34 98.861-342.614h-755.562z" />
<glyph unicode="&#xe91d;" glyph-name="cal" d="M819.202 765.441v-47.64c0-16.966-13.754-30.72-30.72-30.72s-30.72 13.754-30.72 30.72v47.64h-491.498l-0.024-47.678c-0.021-16.966-13.792-30.703-30.758-30.682s-30.703 13.792-30.682 30.758l0.024 47.601h-51.475c-39.441 0-71.429-32.058-71.429-71.691v-578.539c0-39.189 32.378-71.691 71.429-71.691h717.303c39.441 0 71.429 32.058 71.429 71.691v409.589h-860.162v61.44h860.162v107.51c0 39.189-32.378 71.691-71.429 71.691h-51.45zM819.202 826.881h51.45c73.16 0 132.869-60.187 132.869-133.131v-578.539c0-73.518-59.448-133.131-132.869-133.131h-717.303c-73.16 0-132.869 60.187-132.869 133.131v578.539c0 73.518 59.448 133.131 132.869 133.131h51.506l0.033 64.55c0.021 16.966 13.792 30.703 30.758 30.682s30.703-13.792 30.682-30.758l-0.033-64.473h491.467v64.511c0 16.966 13.754 30.72 30.72 30.72s30.72-13.754 30.72-30.72v-64.511z" />
<glyph unicode="&#xe91e;" glyph-name="camera" d="M857.6 734.73v0c63.648 0 115.2-56.269 115.2-124.16v-449.925c0-67.881-51.552-122.245-115.2-122.245h-691.2c-63.648 0-115.2 54.989-115.2 122.88v449.925c0 67.871 51.552 123.515 115.2 123.515h115.2l76.8 122.88h307.2l76.8-122.87h115.2zM512 611.84c-106.042 0-192-91.699-192-204.8s85.968-204.8 192-204.8c106.042 0 192 91.689 192 204.8s-85.958 204.8-192 204.8v0z" />
<glyph unicode="&#xe91f;" glyph-name="cart-e" d="M274.245 475.224l-39.263 205.196 689.248-1.031-70.907-204.166h-579.078zM286.114 413.194l589.1 0.613c13.070 0.014 24.7 8.295 28.988 20.641l92.215 265.518c6.926 19.942-7.863 40.767-28.974 40.799h-744.007l-23.528 122.962c-2.77 14.477-15.433 24.947-30.173 24.947h-133.998c-16.966 0-30.72-13.754-30.72-30.72s13.754-30.72 30.72-30.72h108.598l106.803-558.178c2.77-14.477 15.433-24.947 30.173-24.947h592.74c16.966 0 30.72 13.754 30.72 30.72s-13.754 30.72-30.72 30.72h-567.341l-20.597 107.645zM776.194 7.681c42.415 0 76.8 34.385 76.8 76.8s-34.385 76.8-76.8 76.8c-42.415 0-76.8-34.385-76.8-76.8s34.385-76.8 76.8-76.8zM343.038 7.681c42.415 0 76.8 34.385 76.8 76.8s-34.385 76.8-76.8 76.8c-42.415 0-76.8-34.385-76.8-76.8s34.385-76.8 76.8-76.8z" />
<glyph unicode="&#xe920;" glyph-name="cart-f" d="M281.096 433.321l589.1 0.613c13.070 0.014 24.7 8.295 28.988 20.641l92.215 265.518c6.926 19.942-7.863 40.767-28.974 40.799h-744.007l-23.528 122.962c-2.77 14.477-15.433 24.947-30.173 24.947h-133.998c-16.966 0-30.72-13.754-30.72-30.72s13.754-30.72 30.72-30.72h108.598l106.803-558.178c2.77-14.477 15.433-24.947 30.173-24.947h592.74c16.966 0 30.72 13.754 30.72 30.72s-13.754 30.72-30.72 30.72h-567.341l-20.597 107.645zM771.176 27.808c42.415 0 76.8 34.385 76.8 76.8s-34.385 76.8-76.8 76.8c-42.415 0-76.8-34.385-76.8-76.8s34.385-76.8 76.8-76.8zM338.020 27.808c42.415 0 76.8 34.385 76.8 76.8s-34.385 76.8-76.8 76.8c-42.415 0-76.8-34.385-76.8-76.8s34.385-76.8 76.8-76.8z" />
<glyph unicode="&#xe921;" glyph-name="clock" d="M512 17.92c237.527 0 430.080 192.553 430.080 430.080s-192.553 430.080-430.080 430.080c-237.527 0-430.080-192.553-430.080-430.080s192.553-430.080 430.080-430.080zM512-43.52c-271.459 0-491.52 220.061-491.52 491.52s220.061 491.52 491.52 491.52c271.459 0 491.52-220.061 491.52-491.52s-220.061-491.52-491.52-491.52zM547.362 734.732c0 16.966-13.754 30.72-30.72 30.72s-30.72-13.754-30.72-30.72v-282.84l162.825-165.988c11.881-12.112 31.331-12.299 43.443-0.418s12.299 31.331 0.418 43.443l-145.246 148.067v257.737z" />
<glyph unicode="&#xe922;" glyph-name="coupon" d="M675.84 499.2c62.209 0 112.64 50.431 112.64 112.64s-50.431 112.64-112.64 112.64c-62.209 0-112.64-50.431-112.64-112.64s50.431-112.64 112.64-112.64zM1007.868 928.314h-497.79l-406.783-406.783c-51.862-51.862-51.499-136.83 0.246-188.576l294.814-294.814c52.337-52.337 136.111-52.711 188.65-0.172l420.862 420.862v469.482zM675.84 560.64c-28.277 0-51.2 22.923-51.2 51.2s22.923 51.2 51.2 51.2c28.277 0 51.2-22.923 51.2-51.2s-22.923-51.2-51.2-51.2zM946.428 484.281l-402.867-402.867c-28.458-28.458-73.331-28.258-101.761 0.172l-294.814 294.814c-27.834 27.834-28.031 73.902-0.246 101.687l388.787 388.787h410.901v-382.593z" />
<glyph unicode="&#xe923;" glyph-name="data" d="M460.8 837.12c-243.182 0-440.32-197.138-440.32-440.32s197.138-440.32 440.32-440.32c243.182 0 440.32 197.138 440.32 440.32 0 16.966-13.754 30.72-30.72 30.72s-30.72-13.754-30.72-30.72c0-209.25-169.63-378.88-378.88-378.88s-378.88 169.63-378.88 378.88c0 209.25 169.63 378.88 378.88 378.88 16.966 0 30.72 13.754 30.72 30.72s-13.754 30.72-30.72 30.72zM574.836 471.983h408.943c16.966 0 30.72 13.754 30.72 30.72 0 215.848-225.674 446.496-439.663 446.496-16.966 0-30.72-13.754-30.72-30.72v-415.776c0-16.966 13.754-30.72 30.72-30.72zM605.556 710.591v175.252c160.773-19.776 326.587-189.301 345.68-352.42-28.56 0-57.706 0-171.928 0h-173.752c0 29.858 0 57.882 0 177.168z" />
<glyph unicode="&#xe924;" glyph-name="enter" d="M136.371 353.103h831.497c16.966 0 30.72 13.754 30.72 30.72v340.925c0 16.966-13.754 30.72-30.72 30.72s-30.72-13.754-30.72-30.72v-310.205h-780.025l184.795 141.566c13.468 10.318 16.022 29.6 5.705 43.068s-29.6 16.022-43.068 5.705l-267.105-204.621c-16.051-12.296-16.051-36.477 0-48.773l267.105-204.621c13.468-10.318 32.751-7.764 43.068 5.705s7.764 32.751-5.705 43.068l-205.547 157.464z" />
<glyph unicode="&#xe925;" glyph-name="home" d="M958.887 492.849c12.768-11.172 32.176-9.879 43.348 2.89s9.879 32.176-2.89 43.348l-450.777 394.434c-11.285 9.875-28.051 10.159-39.664 0.672l-482.844-394.434c-13.139-10.734-15.090-30.086-4.356-43.226s30.086-15.090 43.226-4.356l462.728 378.001 431.229-377.33zM589.302 193.21v-202.453c0-16.966 13.754-30.72 30.72-30.72h248.732c16.966 0 30.72 13.754 30.72 30.72v504.941c0 16.966-13.754 30.72-30.72 30.72s-30.72-13.754-30.72-30.72v-474.221h-187.292v202.453c0 16.966-13.754 30.72-30.72 30.72h-210.422c-16.966 0-30.72-13.754-30.72-30.72v-202.453h-181.089v474.221c0 16.966-13.754 30.72-30.72 30.72s-30.72-13.754-30.72-30.72v-504.941c0-16.966 13.754-30.72 30.72-30.72h242.529c16.966 0 30.72 13.754 30.72 30.72v202.453h148.982z" />
<glyph unicode="&#xe926;" glyph-name="intro-l" d="M427.671 870.4c-132.518-33.129-234.918-99.388-310.212-198.776-78.306-96.376-117.459-213.835-117.459-349.365 0-87.341 18.071-156.612 60.235-210.824 39.153-54.212 93.365-84.329 162.635-84.329 60.235 0 108.424 18.071 144.565 51.2 33.129 36.141 51.2 81.318 51.2 135.529s-18.071 96.376-54.212 132.518c-36.141 36.141-78.306 51.2-126.494 51.2-33.129 0-57.224-3.012-69.271-9.035 0 72.282 21.082 138.541 69.271 198.776 45.176 63.247 108.424 108.424 189.741 132.518v150.588zM1024 870.4c-132.518-33.129-234.918-99.388-313.224-198.776-78.306-96.376-114.447-213.835-114.447-349.365 0-84.329 18.071-156.612 57.224-210.824 42.165-54.212 96.376-84.329 165.647-84.329 57.224 0 102.4 18.071 138.541 51.2 36.141 36.141 57.224 81.318 57.224 135.529s-18.071 96.376-51.2 132.518c-36.141 36.141-81.318 51.2-132.518 51.2-30.118 0-54.212-3.012-66.259-9.035 0 72.282 21.082 138.541 66.259 195.765 48.188 66.259 111.435 111.435 192.753 135.529v150.588z" />
<glyph unicode="&#xe927;" glyph-name="intro-r" d="M596.329 27.106c132.518 33.129 234.918 99.388 313.224 198.776 78.306 96.376 114.447 213.835 114.447 349.365 0 84.329-18.071 156.612-57.224 210.824-42.165 54.212-96.376 84.329-165.647 84.329-57.224 0-102.4-18.071-138.541-51.2-36.141-36.141-57.224-81.318-57.224-135.529s18.071-96.376 51.2-132.518c36.141-36.141 81.318-51.2 132.518-51.2 30.118 0 54.212 3.012 66.259 9.035 0-72.282-21.082-138.541-66.259-195.765-48.188-66.259-111.435-111.435-192.753-135.529v-150.588zM0 27.106c132.518 33.129 234.918 99.388 310.212 198.776 78.306 96.376 117.459 213.835 117.459 349.365 0 87.341-18.071 156.612-60.235 210.824-39.153 54.212-93.365 84.329-162.635 84.329-60.235 0-108.424-18.071-144.565-51.2-33.129-36.141-51.2-81.318-51.2-135.529s18.071-96.376 54.212-132.518c36.141-36.141 78.306-51.2 126.494-51.2 33.129 0 57.224 3.012 69.271 9.035 0-72.282-21.082-138.541-69.271-198.776-45.176-63.247-108.424-108.424-189.741-132.518v-150.588z" />
<glyph unicode="&#xe928;" glyph-name="location" d="M931.173 866.991l-335.019-781.044-95.607 335.512c-2.992 10.498-11.33 18.62-21.903 21.336l-343.015 88.090 795.544 336.106zM560.76-14.040c7.924-27.808 46.378-30.265 57.776-3.691l399.165 930.59c10.903 25.419-14.71 51.172-40.188 40.408l-949.625-401.203c-27.086-11.443-24.166-50.739 4.314-58.053l414.086-106.342 114.471-401.709z" />
<glyph unicode="&#xe929;" glyph-name="margin" d="M265.83 788.685v-710.246c0-16.589 12.902-25.19 29.491-25.19s29.491 8.602 29.491 25.19v710.246h241.869c14.131 0 23.347 12.288 23.347 26.419 0 14.746-8.602 27.648-23.347 27.648h-543.334c-14.746 0-23.347-12.902-23.347-27.648 0-14.131 8.602-26.419 23.962-26.419h241.869zM876.491 154.929v586.125l78.232-78.232c6.69-6.69 15.428-9.967 24.166-9.967s17.476 3.345 24.166 9.967c13.312 13.312 13.312 34.952 0 48.264l-136.53 136.53c-13.312 13.312-34.952 13.312-48.264 0l-136.53-136.53c-13.312-13.312-13.312-34.952 0-48.264s34.952-13.312 48.264 0l78.232 78.232v-586.125l-78.232 78.232c-13.312 13.312-34.952 13.312-48.264 0s-13.312-34.952 0-48.264l136.53-136.53c6.69-6.69 15.428-9.967 24.166-9.967s17.476 3.345 24.166 9.967l136.53 136.53c13.312 13.312 13.312 34.952 0 48.264s-34.952 13.312-48.264 0l-78.369-78.232z" />
<glyph unicode="&#xe92a;" glyph-name="math-add" d="M485.985 412.862h-445.555c-16.966 0-30.72 13.754-30.72 30.72s13.754 30.72 30.72 30.72h445.555v435.722c0 16.966 13.754 30.72 30.72 30.72s30.72-13.754 30.72-30.72v-435.722h436.146c16.966 0 30.72-13.754 30.72-30.72s-13.754-30.72-30.72-30.72h-436.146v-426.887c0-16.966-13.754-30.72-30.72-30.72s-30.72 13.754-30.72 30.72v426.887z" />
<glyph unicode="&#xe92b;" glyph-name="math-divide" horiz-adv-x="614" d="M468.144 877.056l-372.241-825.706c-6.973-15.467-0.087-33.658 15.38-40.631s33.658-0.087 40.631 15.38l372.241 825.706c6.973 15.467 0.087 33.658-15.38 40.631s-33.658 0.087-40.631-15.38z" />
<glyph unicode="&#xe92c;" glyph-name="math-minus" d="M47.81 414.072h928.379c16.966 0 30.72 13.754 30.72 30.72s-13.754 30.72-30.72 30.72h-928.379c-16.966 0-30.72-13.754-30.72-30.72s13.754-30.72 30.72-30.72z" />
<glyph unicode="&#xe92d;" glyph-name="math-multipy" d="M457.948 439.937l-393.819 393.819c-14.996 14.996-14.996 39.31 0 54.306s39.31 14.996 54.306 0l393.819-393.819 385.127 385.127c14.996 14.996 39.31 14.996 54.306 0s14.996-39.31 0-54.306l-385.127-385.127 385.503-385.503c14.996-14.996 14.996-39.31 0-54.306s-39.31-14.996-54.306 0l-385.503 385.503-377.318-377.318c-14.996-14.996-39.31-14.996-54.306 0s-14.996 39.31 0 54.306l377.318 377.318z" />
<glyph unicode="&#xe92e;" glyph-name="menu" d="M51.486 726h924.165c16.966 0 30.72 13.754 30.72 30.72s-13.754 30.72-30.72 30.72h-924.165c-16.966 0-30.72-13.754-30.72-30.72s13.754-30.72 30.72-30.72zM51.486 418.8h924.165c16.966 0 30.72 13.754 30.72 30.72s-13.754 30.72-30.72 30.72h-924.165c-16.966 0-30.72-13.754-30.72-30.72s13.754-30.72 30.72-30.72zM51.486 111.6h924.165c16.966 0 30.72 13.754 30.72 30.72s-13.754 30.72-30.72 30.72h-924.165c-16.966 0-30.72-13.754-30.72-30.72s13.754-30.72 30.72-30.72z" />
<glyph unicode="&#xe92f;" glyph-name="more" d="M512 352c53.019 0 96 42.981 96 96s-42.981 96-96 96c-53.019 0-96-42.981-96-96s42.981-96 96-96zM512-32c53.019 0 96 42.981 96 96s-42.981 96-96 96c-53.019 0-96-42.981-96-96s42.981-96 96-96zM512 736c53.019 0 96 42.981 96 96s-42.981 96-96 96c-53.019 0-96-42.981-96-96s42.981-96 96-96z" />
<glyph unicode="&#xe930;" glyph-name="more2" d="M416 448c0-53.019 42.981-96 96-96s96 42.981 96 96c0 53.019-42.981 96-96 96s-96-42.981-96-96zM32 448c0-53.019 42.981-96 96-96s96 42.981 96 96c0 53.019-42.981 96-96 96s-96-42.981-96-96zM800 448c0-53.019 42.981-96 96-96s96 42.981 96 96c0 53.019-42.981 96-96 96s-96-42.981-96-96z" />
<glyph unicode="&#xe931;" glyph-name="alipay" d="M388.533 340.806c35.884-12.423 83.487-31.741 105.569-43.472l40.016-21.39-22.077-27.598c-12.417-15.181-40.708-41.4-64.169-58.653-78.658-58.642-151.794-81.416-245.633-75.894-97.976 5.522-150.415 45.538-156.629 120.058-4.137 46.23 6.214 72.449 37.955 96.597 40.016 30.362 72.444 37.258 160.761 35.186 67.62-2.071 89.009-6.209 144.206-24.835v0zM415.445 790.671l-2.071-67.62h-272.544v-51.746h275.995v-89.696h-227.694v-48.993l462.975 4.143-4.137-16.56c-10.351-40.021-54.51-146.97-62.79-150.415-4.83-1.379-38.642 6.209-76.587 17.252-115.229 35.186-172.502 45.538-250.468 45.538-79.35-0.687-131.096-15.181-180.777-50.367-96.592-68.999-104.185-204.238-14.484-279.445 95.213-80.042 251.149-87.625 392.597-18.631 50.367 24.148 140.756 89.696 171.112 123.509l12.423 14.494 39.329-19.324c39.329-20.005 282.204-132.476 323.599-149.728l22.077-9.659v177.326l-60.026 15.868c-54.51 14.494-193.886 57.96-238.737 75.218l-17.252 6.896 22.774 46.917c24.148 48.296 72.449 184.919 72.449 204.93 0 9.659-13.802 11.038-120.75 11.038h-120.745v89.691h289.797v45.538c0 2.071-65.548 3.45-144.898 2.758l-144.893-0.687v138.684h-144.206l-2.066-66.927z" />
<glyph unicode="&#xe932;" glyph-name="arrow-down" d="M936.589 666.768c12.605 11.356 32.030 10.343 43.386-2.263s10.343-32.030-2.263-43.386l-440.091-396.465c-11.626-10.473-29.266-10.535-40.964-0.142l-450.499 400.201c-12.684 11.268-13.832 30.685-2.564 43.369s30.685 13.832 43.369 2.564l429.953-381.949 419.673 378.071z" />
<glyph unicode="&#xe933;" glyph-name="arrow-down2" d="M936.586 871.568c12.605 11.356 32.030 10.343 43.386-2.263s10.343-32.030-2.263-43.386l-440.091-396.465c-11.626-10.473-29.266-10.535-40.964-0.142l-450.499 400.201c-12.684 11.268-13.832 30.685-2.564 43.369s30.685 13.832 43.369 2.564l429.953-381.949 419.673 378.071zM936.586 461.968c12.605 11.356 32.030 10.343 43.386-2.263s10.343-32.030-2.263-43.386l-440.091-396.465c-11.626-10.473-29.266-10.535-40.964-0.142l-450.499 400.201c-12.684 11.268-13.832 30.685-2.564 43.369s30.685 13.832 43.369 2.564l429.953-381.949 419.673 378.071z" />
<glyph unicode="&#xe934;" glyph-name="arrow-down3" d="M449.241 77.879c34.673-60.678 90.309-61.694 125.563 0l386.437 676.266c34.673 60.678 7.727 109.867-62.781 109.867h-772.875c-69.346 0-98.035-48.173-62.781-109.867l386.437-676.266z" />
<glyph unicode="&#xe935;" glyph-name="arrow-down4" horiz-adv-x="819" d="M378.881 81.446l-297.597 297.122c-12.006 11.987-31.457 11.972-43.445-0.035s-11.972-31.457 0.035-43.445l350.020-349.462c11.993-11.974 31.417-11.974 43.41 0l350.020 349.462c12.006 11.987 12.022 31.438 0.035 43.445s-31.438 12.022-43.445 0.035l-297.594-297.119v807.185c0 16.966-13.754 30.72-30.72 30.72s-30.72-13.754-30.72-30.72v-807.187z" />
<glyph unicode="&#xe936;" glyph-name="arrow-left" horiz-adv-x="614" d="M531.928 872.313c11.356 12.605 10.343 32.030-2.263 43.386s-32.030 10.343-43.386-2.263l-396.465-440.091c-10.473-11.626-10.535-29.266-0.142-40.964l400.201-450.499c11.268-12.684 30.685-13.832 43.369-2.564s13.832 30.685 2.564 43.369l-381.949 429.953 378.071 419.673z" />
<glyph unicode="&#xe937;" glyph-name="arrow-left2" d="M935.384 872.313c11.356 12.605 10.343 32.030-2.263 43.386s-32.030 10.343-43.386-2.263l-396.465-440.091c-10.473-11.626-10.535-29.266-0.142-40.964l400.201-450.499c11.268-12.684 30.685-13.832 43.369-2.564s13.832 30.685 2.564 43.369l-381.949 429.953 378.071 419.673zM525.784 872.313c11.356 12.605 10.343 32.030-2.263 43.386s-32.030 10.343-43.386-2.263l-396.465-440.091c-10.473-11.626-10.535-29.266-0.142-40.964l400.201-450.499c11.268-12.684 30.685-13.832 43.369-2.564s13.832 30.685 2.564 43.369l-381.949 429.953 378.071 419.673z" />
<glyph unicode="&#xe938;" glyph-name="arrow-left4" d="M145.446 417.281l297.122-297.597c11.987-12.006 11.972-31.457-0.035-43.445s-31.457-11.972-43.445 0.035l-349.462 350.020c-11.974 11.993-11.974 31.417 0 43.41l349.462 350.020c11.987 12.006 31.438 12.022 43.445 0.035s12.022-31.438 0.035-43.445l-297.119-297.594h807.185c16.966 0 30.72-13.754 30.72-30.72s-13.754-30.72-30.72-30.72h-807.187z" />
<glyph unicode="&#xe939;" glyph-name="arrow-right" horiz-adv-x="614" d="M93.55 871.856c-11.356 12.605-10.343 32.030 2.263 43.386s32.030 10.343 43.386-2.263l396.465-440.091c10.473-11.626 10.535-29.266 0.142-40.964l-400.201-450.499c-11.268-12.684-30.685-13.832-43.369-2.564s-13.832 30.685-2.564 43.369l381.949 429.953-378.071 419.673z" />
<glyph unicode="&#xe93a;" glyph-name="arrow-right2" d="M87.407 872.313c-11.356 12.605-10.343 32.030 2.263 43.386s32.030 10.343 43.386-2.263l396.465-440.091c10.473-11.626 10.535-29.266 0.142-40.964l-400.201-450.499c-11.268-12.684-30.685-13.832-43.369-2.564s-13.832 30.685-2.564 43.369l381.949 429.953-378.071 419.673zM497.007 872.313c-11.356 12.605-10.343 32.030 2.263 43.386s32.030 10.343 43.386-2.263l396.465-440.091c10.473-11.626 10.535-29.266 0.142-40.964l-400.201-450.499c-11.268-12.684-30.685-13.832-43.369-2.564s-13.832 30.685-2.564 43.369l381.949 429.953-378.071 419.673z" />
<glyph unicode="&#xe93b;" glyph-name="arrow-right4" d="M878.554 417.281l-297.122-297.597c-11.987-12.006-11.972-31.457 0.035-43.445s31.457-11.972 43.445 0.035l349.462 350.020c11.974 11.993 11.974 31.417 0 43.41l-349.462 350.020c-11.987 12.006-31.438 12.022-43.445 0.035s-12.022-31.438-0.035-43.445l297.119-297.594h-807.185c-16.966 0-30.72-13.754-30.72-30.72s13.754-30.72 30.72-30.72h807.187z" />
<glyph unicode="&#xe93c;" glyph-name="arrow-up" d="M933.672 228.391c12.605-11.356 32.030-10.343 43.386 2.263s10.343 32.030-2.263 43.386l-440.091 396.465c-11.626 10.473-29.266 10.535-40.964 0.142l-450.499-400.201c-12.684-11.268-13.832-30.685-2.564-43.369s30.685-13.832 43.369-2.564l429.953 381.949 419.673-378.071z" />
<glyph unicode="&#xe93d;" glyph-name="arrow-up2" d="M936.586 23.591c12.605-11.356 32.030-10.343 43.386 2.263s10.343 32.030-2.263 43.386l-440.091 396.465c-11.626 10.473-29.266 10.535-40.964 0.142l-450.499-400.201c-12.684-11.268-13.832-30.685-2.564-43.369s30.685-13.832 43.369-2.564l429.953 381.949 419.673-378.071zM936.586 433.191c12.605-11.356 32.030-10.343 43.386 2.263s10.343 32.030-2.263 43.386l-440.091 396.465c-11.626 10.473-29.266 10.535-40.964 0.142l-450.499-400.201c-12.684-11.268-13.832-30.685-2.564-43.369s30.685-13.832 43.369-2.564l429.953 381.949 419.673-378.071z" />
<glyph unicode="&#xe93e;" glyph-name="jks" horiz-adv-x="2381" d="M2101.833 187.58v-4.645c7.394-1.005 9.479-6.806 9.479-25.31v-161.973c0-18.56-2.085-24.267-9.479-25.367v-4.607h60.269v4.607c-7.432 1.090-9.508 6.891-9.508 25.404v78.394c15.736 2.228 25.841-11.167 34.334-23.129 13.972-19.783 37.159-56.781 51.112-71.91 13.792-15.006 36.069-13.366 63.985-13.366v4.616c-35.879 16.229-73.038 113.211-104.139 118.491 18.816 17.755 64.137 70.26 88.935 98.812h-30.353c-62.886-72.213-81.996-99.57-103.874-101.22v101.21l-50.762-0.009zM2062.731-34.33c0.758 10.569 3.953 39.86 3.953 41.974-1.896 0-2.038-0.038-4.36 0-8.019-18.722-20.352-26.826-50.278-26.826-13.404 0-17.726 0-25.935 0.19-10.494 0.379-16.115 2.711-16.115 12.854v77.73c11.896-0.038 30.353 0 44.932 0 19.082 0 27.898 5.972 33.718 20.172l-1.119 1.735c-5.82-2.37-11.802-3.365-35.206-3.365h-42.344v81.996h39.149c24.836 0 37.282-6.256 42.202-22.352 2.322 0.095 3.195 0.218 5.052 0.218 0 2.114-2.303 27.85-2.73 37.585h-133.952v-4.607c7.46-1.062 9.574-6.986 9.574-25.547v-162.001c0-18.523-2.114-24.229-9.574-25.243v-4.522l143.033 0.009zM1884.994-34.33c0.777 10.569 3.905 39.86 3.905 41.974-1.877 0-2.048-0.038-4.379 0-7.982-18.722-20.333-26.826-50.221-26.826-13.442 0-17.707 0-25.954 0.19-10.522 0.379-16.115 2.711-16.115 12.854v77.73c11.868-0.038 30.334 0 44.951 0 19.053 0 27.869 5.972 33.67 20.172l-1.071 1.735c-5.849-2.37-11.83-3.365-35.216-3.365h-42.335v81.996h39.149c24.836 0 37.187-6.256 42.135-22.352 2.322 0.095 3.195 0.218 5.1 0.218 0 2.114-2.351 27.85-2.777 37.585h-133.885v-4.607c7.47-1.062 9.574-6.986 9.574-25.547v-162.001c0-18.523-2.104-24.229-9.574-25.243v-4.522l143.042 0.009zM1641.813 132.714c0 27.964-14.882 41.045-47.34 41.045-5.564 0-11.811-0.284-15.006-1.27l-0.019-85.949v-7.261c2.73-0.218 6.768-0.474 15.508-0.474 29.926 0 46.856 16.361 46.856 53.909v0zM1528.677-34.358v4.522c7.432 1.014 9.527 6.73 9.527 25.234v162.001c0 18.579-2.085 24.494-9.527 25.499v4.645h71.322c59.909 0 86.195-17.205 86.195-52.25 0-29.007-21.67-55.643-56.165-60.791 32.846-2.939 53.918-87.304 88.726-104.272v-4.597c-27.935 0-49.197-2.237-62.146 12.228-13.821 15.29-32.741 53.255-46.638 73.047-8.105 11.375-15.167 15.736-30.523 14.759v-70.27c0-18.513 2.057-24.22 9.527-25.234v-4.522h-60.298zM960.707 31.58c0 25.556-15.707 43.32-49.558 43.32-5.64 0-10.664-0.047-14.996-0.19v-79.086c0-12.389 3.744-16.067 17.252-16.067 31.282 0 47.302 14.598 47.302 52.013v0.009zM910.192 174.091c-5.545 0-9.972-0.171-14.029-0.379v-84.678c4.711-0.265 9.432-0.351 14.276-0.351 29.718 0 41.121 18.769 41.121 45.918 0 21.091-9.735 39.481-41.377 39.481l0.009 0.009zM854.899 87.849v69.54c0 18.608-2.104 24.532-9.555 25.537v4.645h30.173c5.877 0 32.704 0.303 38.581 0.303 34.448 0 79.152-7.015 79.152-48.875 0-18.94-9.479-43.586-43.794-51.757 33.557-4.597 55.245-24.457 55.245-53.255 0-38.562-31.414-68.317-79.863-68.317h-79.484v4.607c7.451 0.976 9.574 6.598 9.574 25.149v92.423h-0.028zM286.521 39.997c-11.603 29.462-25.945 65.976-35.974 91.826v0.588c-9.555-24.949-24.267-62.118-36.211-92.423l72.185 0.009zM271.127 187.59c12.247-29.812 48.316-118.681 67.398-167.461 10.010-25.528 19.395-45.159 38.012-49.842v-4.607c-54.411-1.043-62.905 6.086-71.095 26.637-1.848 4.436-6.474 16.229-12.541 31.49h-84.934c-4.076-10.313-7.489-19.11-9.858-25.281-2.749-7.337-5.915-15.764-6.114-21.471-0.142-4.683 1.896-6.162 6.133-6.759v-4.607h-41.557v4.607c6.579 1.848 9.669 4.218 13.593 13.404 3.924 9.129 76.422 187.443 82.707 203.899l18.257-0.009zM72.611 187.59v-4.645c7.991-1.109 13.366-4.076 13.366-21.736v-163.518c0-32.012-9.129-50.999-30.836-50.999-33.102 0-23.575 34.666-44.505 33.481-6.607-0.332-10.636-4.645-10.636-11.754 0-18.39 20.93-32.419 45.956-32.419 46.145 0 80.887 29.348 80.887 94.982l-0.028 130.17c0.095 17.631 5.432 20.76 13.442 21.774 0 2.029-0.038 2.616 0 4.645-3.887 0.047-19.205-0.095-33.813 0l-33.832 0.019zM687.561-37.799c-68.279 0-112.33 48.951-112.33 113.562 0 82.375 67.966 116.254 120.264 116.254 69.796 0 113.050-47.984 113.050-111.818 0-80.546-58.658-117.998-120.984-117.998v0zM763.395 63.43c0 77.967-31.092 114.159-71.076 114.159-28.665 0-69.673-12.389-69.673-100.405 0-47.302 19.499-99.817 73.844-99.817 43.832 0 66.905 40.249 66.905 86.072v-0.009zM1353.623 77.185c0 80.953 40.42 101.21 76.687 101.21 25.243 0 34.163-12.987 37.576-24.381 2.085-6.683 4.929-13.745 14.56-13.745 9.337 0 13.489 7.062 13.489 15.394 0 17.489-26.286 36.344-67.587 36.344-49.453 0-121.24-29.035-121.24-116.263 0-64.601 42.221-113.562 110.405-113.562 50.098 0 71 15.802 83.418 28.191l-2.398 4.323c-9.906-5.46-28.722-14.807-59.227-14.807-57.767 0-85.674 42.41-85.674 97.286l-0.009 0.009zM421.411 77.194c0 80.953 40.439 101.21 76.735 101.21 25.272 0 34.182-12.987 37.661-24.381 1.991-6.683 4.91-13.745 14.475-13.745 9.309 0 13.574 7.062 13.574 15.394 0 17.489-26.352 36.344-67.711 36.344-49.425 0-121.183-29.035-121.183-116.263 0-64.601 42.183-113.562 110.434-113.562 50.126 0 71 15.802 83.38 28.191l-2.37 4.323c-9.896-5.46-28.779-14.807-59.283-14.807-57.748 0-85.712 42.41-85.712 97.286v0.009zM1154.132 15.73c0-19.148-11.015-35.509-42.752-35.509-27.964 0-48.818 18.295-59.909 31.244l-4.123-2.702c2.465-13.527 24.058-46.42 67.341-46.42 44.439 0 78.46 29.348 78.46 70.943 0 61.928-95.172 64.526-95.172 114.358 0 16.115 12.418 29.936 31.282 29.936 21.727 0 29.007-14.446 30.656-23.471 1.251-6.806 4-13.821 13.555-13.821 9.271 0 13.517 7.062 13.517 15.394 0 17.499-18.75 35.358-54.658 35.358-30.675 0-73.142-14.731-73.142-58.904 0.028-63.834 94.935-61.852 94.935-116.387l0.009-0.019zM1015.876 210.075c0 9.043 6.417 14.219 15.214 14.219 11.129 0 16.086-10.541 16.086-20.949 0-15.451-12.162-27.139-17.916-30.049l-2.18 1.848c2.427 2.247 3.46 5.877 3.46 8.294 0.019 12.816-14.664 13.48-14.664 26.637zM1107.968 960c-0.19 0-0.398 0-0.597-0.019-17.944-1.185-64.459-60.857-97.22-136.663 0 0-5.289-11.697-15.83-11.697-10.617 0-25.262 6.844-25.878 34.125-0.284 12.399-5.403 18.2-11.697 18.2-1.706 0-3.488-0.436-5.252-1.232-4.531-2.029-9.195-6.541-12.844-13.271-0.711-1.289-1.356-2.654-1.953-4.057-8.531-18.030-21.584-59.843-21.499-108.614 0.019-21.366 2.578-44.079 9.1-66.668 5.915-19.47 12.276-32.021 12.228-40.116 0-3.659-1.374-6.399-4.664-8.418-0.929-0.569-1.943-0.853-3.033-0.929h-1.185c-13.972 1.251-39.69 36.78-54.961 71.379-7.299 16.627-13.1 19.888-17.442 17.195-0.028-0.019-0.047-0.019-0.066-0.047l-0.095-0.066c-0.815-0.55-1.593-1.27-2.303-2.18-0.028-0.019-0.047-0.057-0.076-0.095-0.019-0.028-0.038-0.076-0.066-0.095l-0.019-0.019c-4.133-5.356-6.541-16.020-7.356-22.182-2.114-16.191-3.090-31.244-3.033-45.235 0.398-149.043 113.941-179.187 157.593-185.567l2.010 1.043c-23.528 39.813-32.381 80.631-32.267 119.657 0.228 87.361 45.406 165.641 71.284 203.539l3.905 5.782c1.299 1.593 2.626 2.465 3.905 2.825 4.048 1.185 7.337-2.844 6.607-6.048-0.806-2.389-1.422-4.228-2.597-7.252-10.076-26.826-23.054-57.824-35.623-102.225-10.067-36.543-14.333-68.725-14.333-97.049 0.019-152.967 124.558-193.283 133.032-195.652 0.218-0.047 0.455-0.066 0.72-0.066 1.071 0 2.275 0.569 2.503 1.384l0.019 0.038v0.047c0.19 0.787-0.408 1.839-2.588 3.033-40.003 19.338-106.007 73.787-105.912 146.796 0.019 5.498 0.408 11.138 1.204 16.873 3.413 21.328 11.944 41.586 37.69 56.155 27.898 16.191 67.587 16.655 78.242 16.655 16.968 0 45.027 3.849 45.046 22.75 0 1.782-0.265 3.697-0.787 5.735-5.801 20.911-49.643 19.404-85.238 24.494-29.31 3.792-46.164 19.575-46.050 37.225 0.142 19.698 21.395 41.785 69.986 52.165 35.794 11.053 48.42 25.575 48.458 37.292 0.019 7.394-4.929 13.669-12.247 17.252-14.409 7.365-20.172 5.877-37.69 10.475-15.319 4.076-39.718 15.688-39.737 43.652 0 13.214 5.403 30.021 19.764 51.378 6.825 10.901 10.114 19.243 10.076 25.736-0.019 3.915-1.251 7.109-3.64 9.811-0.408 0.474-0.882 0.891-1.422 1.232-1.735 1.1-4.038 1.517-6.019 1.517h-0.152v0.019zM1187.878 881.73c0.341-2.465 2.029-5.555 5.403-9.29 18.769-22.94 27.717-46.515 27.68-67.635-0.047-29.338-17.575-53.918-50.449-65.293-10.162-3.261-15.688-4.929-22.238-7.801-7.887-3.413-12.655-7.849-12.74-12.304-0.076-4.768 5.233-9.612 17.954-13.536 30.334-9.214 122.055-11.773 131.411-67.966 0.351-2.484 0.55-4.872 0.55-7.204 0.047-30.874-31.395-50.43-68.194-56.345-49.103-8.228-66.355-26.002-66.355-45.406 0-40.571 62.298-61.113 106.708-61.113h1.356c17.84 20.305 51.918 67.246 51.994 137.241 0 20.039-2.749 41.974-9.479 65.739-17.158 57.824-27.262 76.052-37.111 97.893-3.28 7.356-4.171 9.29-4.398 9.612-0.512 1.062-0.787 2.029-0.891 2.939-0.417 3.507 1.991 5.631 5.024 5.631 2.626 0 5.716-1.564 7.915-5.157l0.047-0.019c0.019-0.019 0.019-0.019 0 0l-0.256 0.512c-0.019 0.038-0.038 0.095-0.066 0.095-0.19 0.379-0.36 0.683-0.313 0.683 0.095 0 1.289-1.801 6.209-9.479 13.404-21.044 40.249-62.924 55.075-113.543 3.792-12.987 9.337-37.121 9.337-66.639 0.019-44.572-12.579-101.353-62.819-150.341-19.679-20.068-47.472-41.519-86.641-61.653-4.294-2.18-8.645-4.853-8.645-18.124 0.047-3.052 0.408-10.494 0.787-17.025 0.237-3.981 2.777-4.834 4.664-4.834h0.891c1.754 0.047 3.602 0.379 4.664 3.014v0.028c0.284 0.597 0.474 1.346 0.597 2.218 0.521 2.417 0.948 5.877 1.327 8.38 1.469 9.148 5.744 18.864 19.101 26.542 56.497 31.187 89.067 68.004 117.562 84.271 22.807 13.176 59.483 17.631 94.774 57.843 21.016 23.736 27.869 56.544 27.566 86.394 0 0.787-0.019 1.583-0.038 2.37v0.095c-0.948 39.86-14.409 73.806-23.509 72.668-5.441-0.72-6.067-6.19-8.247-13.783-7.356-27.111-29.007-45.027-35.054-45.027-0.332 0-0.588 0.038-0.806 0.123-0.986 0.408-1.109 1.706-0.114 3.962 10.427 22.94 14.503 46.411 14.503 68.725 0 57.046-26.618 106.67-41.377 121.487-5.432 5.403-11.091 6.541-13.29 0.588-0.626-1.706-0.967-4.076-0.948-7.109 0.133-11.878-1.232-22.561-4.882-28.438-5.157-8.361-14.949-6.825-31.538 15.527-23.291 31.623-73.464 74.507-103.059 85.759-2.73 0.948-5.365 1.517-7.773 1.744h-0.028l-0.161 0.019c-0.777 0.057-1.498 0.095-2.199 0.095-6.067 0-10.143-2.408-9.479-7.138v0.009zM2369.822 156.299c0-18.086-14.2-32.343-32.741-32.343-18.295 0-32.912 14.257-32.912 32.343 0 17.755 14.598 32.002 32.912 32.002 18.541 0 32.741-14.238 32.741-31.993v-0.009zM2312.358 156.308c0-14.219 10.494-25.499 24.931-25.499 14.029 0 24.362 11.28 24.362 25.338 0 14.238-10.332 25.689-24.57 25.689-14.219 0-24.722-11.47-24.722-25.528zM2332.028 139.568h-7.413v31.945c2.939 0.588 7.043 0.976 12.304 0.976 6.038 0 8.778-0.976 11.091-2.37 1.754-1.308 3.147-3.887 3.147-6.967 0-3.507-2.73-6.218-6.664-7.441v-0.332c3.147-1.185 4.91-3.555 5.877-7.83 0.976-4.853 1.564-6.806 2.303-7.982h-7.963c-0.995 1.175-1.555 4.095-2.521 7.773-0.588 3.555-2.559 5.119-6.664 5.119h-3.479v-12.892h-0.019zM2332.217 157.673h3.507c4.076 0 7.413 1.365 7.413 4.711 0 2.91-2.18 4.815-6.844 4.815l-4.076-0.332v-9.195z" />
<glyph unicode="&#xe93f;" glyph-name="rrmj" horiz-adv-x="3868" d="M419.057 903.111c0-37.112-0.977-87.897-0.977-153.331-7.813-280.294-361.192-634.974-361.192-634.974v-112.15c0 0 377.632 234.88 442.089 434.113 75.201-206.070 427.44-432.16 427.44-432.16v110.197c0 0-249.204 247.909-343.304 483.733-11.416 28.609-19.841 243.197-19.841 304.573h-144.216zM1395.69 903.111c0-37.112-0.977-87.897-0.977-153.331-7.813-280.294-361.192-634.974-361.192-634.974v-112.15c0 0 377.632 234.88 442.089 434.113 75.201-206.070 427.44-432.16 427.44-432.16v110.197c0 0-266.96 265.573-352.6 508.448-7.141 20.252-10.545 193.914-10.545 279.858h-144.216zM2049.872 815.214v-91.804h346.705v-66.411h-292.013v-87.897h292.013v-67.388h-378.934v-93.757h861.391v93.757h-378.934v67.388h294.943v87.897h-294.943v66.411h346.705v91.804h-143.728v76.34h-170.422v-76.34h-169.609v76.34h-169.446v-76.34h-143.728zM2396.577 370.85v-38.093h-356.471v-95.71h295.92c-12.696-13.673-27.346-27.346-43.948-41.019-60.551-44.925-160.168-79.107-298.85-103.523l41.995-99.617c162.121 33.206 276.387 78.131 340.845 134.775 27.346 24.416 51.762 52.738 71.294 84.967 65.434-104.5 201.186-176.771 407.256-216.813l53.715 96.687c-176.771 25.392-298.85 74.224-365.261 144.542h314.476v95.71h-360.378c3.907 15.626 2.93 28.485 2.93 38.093h-103.523zM3274.57 430.421v-94.733h-126.962v-327.172h249.352c62.936 0 113.956 51.121 113.956 113.511v213.661h-137.705v94.733h166.028v92.78h-166.028v91.804h153.331v258.808h-488.317v-365.261c-0.977-179.701-25.392-327.172-74.224-441.438l77.154-69.341c52.738 123.056 83.99 266.621 91.804 432.649h141.612zM3274.57 615.004v-91.804h-139.659v91.804h139.659zM3240.388 132.547v115.243h174.817v-115.243h-174.817zM3430.831 781.032v-76.177h-295.92v76.177h295.92zM3577.326 818.144v-599.653h99.617v599.653h-99.617zM3744.331 9.492c67.388 0 101.57 34.182 101.57 102.546v789.12h-101.57v-762.751c0-25.392-11.72-38.089-35.159-38.089-41.995 0-85.944 1.953-132.822 5.86l22.463-96.687h145.518z" />
<glyph unicode="&#xe940;" glyph-name="dfhk" horiz-adv-x="5163" d="M0 577.837l329.638-589.354h499.461c0 0-429.58 89.894-479.53 419.532l649.353-209.766c0 0-399.602 229.738-399.602 269.723 0 39.944 379.63 229.738 379.63 229.738l-609.368-169.822c0 0 99.9 389.595 489.495 399.56l-549.411 10.007-189.753-379.588-119.914 19.972zM1637.893 915.032c1.661 19.972 14.117 30.767 37.411 32.428 24.996-1.661 38.283-11.668 39.944-29.937v-64.939h182.32c34.961 0 52.483-18.311 52.483-54.933v-212.299c1.619-41.604-18.352-61.576-59.957-59.915h-174.805v-132.37c-1.661-21.633-14.159-33.259-37.411-34.961-25.037 1.702-38.283 13.328-39.944 34.961v132.37h-187.344c-33.3-1.661-49.161 16.65-47.459 54.933v224.797c0 31.639 16.65 47.459 49.95 47.459h184.812v62.407zM1637.893 602.875v172.314h-139.885c-14.948 1.661-21.633-5.813-19.972-22.463v-124.855c-1.661-18.311 5.855-26.657 22.505-24.996h137.353zM1872.572 750.193c1.661 18.311-5.855 26.615-22.463 24.954h-134.861v-172.314h137.394c14.948-1.661 21.633 5.813 19.93 22.505v124.855zM2536.873 917.565c39.944 3.28 58.254-14.989 54.933-54.974v-434.521c3.322-38.283-14.2-55.763-52.483-52.441h-439.504c-39.985-1.661-59.126 15.82-57.466 52.441v434.48c-1.661 38.283 18.311 56.594 59.957 54.974l434.563 0.042zM2334.58 820.115v27.446h-204.783c-9.965 0-14.989-4.152-14.989-12.456v-379.588c0-8.346 4.194-12.498 12.498-12.498h169.822c-11.626 6.643-8.346 19.972 10.007 39.944-61.618-9.965-110.737-16.65-147.359-19.972-26.657-4.983-39.944 4.983-39.944 29.978-1.702 19.972 7.474 31.598 27.446 34.961 89.935 11.626 144.038 19.141 162.349 22.463 28.276 4.983 42.393 0.83 42.393-12.498 10.007 10.007 17.48 19.141 22.505 27.487-14.989 41.604-26.657 104.883-34.961 189.794h-184.812c-16.692 1.661-24.996 12.498-24.996 32.47s8.263 30.767 24.996 32.47h179.829zM2134.821 682.762c0 31.639 12.498 47.459 37.452 47.459h124.855c26.657 1.661 39.113-14.2 37.452-47.459v-74.905c1.661-29.978-14.159-44.137-47.459-42.476h-107.416c-33.3-3.322-48.248 10.007-44.926 39.944v77.437h0.042zM2269.641 675.288h-69.922v-47.459h69.922v47.459zM2446.979 443.017c-14.989 8.304-29.978 27.487-44.968 57.424-26.657-38.283-44.137-57.424-52.441-57.424h97.409zM2402.011 847.602v-27.446h29.978c-1.702 0-2.491 0.83-2.491 2.491l-2.533 2.491c-5.024 10.007-7.515 17.48-7.515 22.463h-17.439zM2519.434 832.654c1.661 9.965-2.533 14.948-12.498 14.948h-29.978c0-1.661 1.619-4.152 4.983-7.474 3.322-3.322 4.983-5.813 4.983-7.474 3.322-6.685 3.322-10.837 0-12.498h4.983c16.609-3.322 24.996-15.82 24.996-37.452-1.702-18.352-12.498-27.487-32.428-27.487h-79.97c1.661-18.311 5.024-47.459 10.007-87.402 1.661-11.668 2.533-20.802 2.533-27.487 3.28 5.024 9.135 20.013 17.48 44.968 6.643 18.311 10.796 29.978 12.498 34.961 8.304 24.954 22.463 34.131 42.393 27.487 18.311-8.346 24.124-23.377 17.522-44.968-11.668-43.307-31.681-91.596-59.915-144.827 11.626-23.335 19.141-34.961 22.463-34.961 1.661 0 3.322 7.474 4.983 22.463 1.661 9.965 3.322 18.311 5.024 24.954 6.643 21.633 19.93 27.487 39.944 17.48v244.768zM2519.434 530.42c-3.322-38.283-10.879-67.431-22.463-87.402h9.965c9.965 0 14.159 4.152 12.498 12.498v74.905zM2911.478 930.022c1.661 16.65 14.159 25.785 37.452 27.487 23.293-1.702 35.75-10.837 37.452-27.487v-27.487h219.731c23.335-1.661 35.791-13.328 37.452-34.961-1.661-23.293-13.287-35.791-34.961-37.452h-222.264v-24.954h174.805c24.996 0 37.452-14.989 37.452-44.968v-184.812c1.661-24.954-12.498-37.452-42.435-37.452h-117.339c59.874-48.289 119.872-84.911 179.788-109.866 23.293-8.304 31.639-23.293 24.954-44.968-11.667-19.972-29.937-25.785-54.933-17.48-71.583 31.639-139.014 74.905-202.251 129.879v-114.89c-1.702-21.633-14.2-33.3-37.452-34.961-23.335 1.661-35.791 13.328-37.452 34.961v112.398c-56.594-51.653-124.024-93.257-202.292-124.896-23.293-8.304-39.944-4.983-49.95 10.007-9.924 23.293-5.813 39.113 12.539 47.459 86.572 39.944 149.020 77.396 187.303 112.357h-119.872c-31.681-1.661-46.628 13.328-44.926 44.968v174.805c-1.702 33.3 14.117 49.12 47.417 47.459h169.822v24.954h-229.738c-16.65 1.661-24.996 14.159-24.996 37.452 0 21.633 8.304 33.3 24.996 34.961h229.738v27.487h-0.042zM2761.628 702.775h147.401v34.961h-147.401v-34.961zM2761.628 602.875h147.401v37.452h-147.401v-37.452zM2986.424 702.775h144.827v34.961h-144.827v-34.961zM2986.424 602.875h144.827v37.452h-144.827v-37.452zM3545.8 932.513c1.661 16.65 14.948 25.785 39.944 27.487 24.996-1.702 38.283-10.837 39.985-27.487v-49.95h227.246c18.311-1.661 28.318-14.159 30.020-37.452-1.702-23.335-11.667-35.791-30.020-37.452h-329.597v-64.939h237.212c49.95 1.661 73.244-16.65 69.964-54.933v-102.392c0-78.268-9.965-131.54-29.978-159.857-19.972-29.937-56.635-44.926-109.907-44.926-49.867 0-85.7 2.491-107.374 7.474-28.318 6.685-42.393 19.183-42.393 37.452 0 23.335 10.796 35.791 32.47 37.494 3.28 0 14.117-0.872 32.387-2.491-3.322 0 0.872-0.872 12.539-2.533h34.961c21.633-1.661 37.411-2.491 47.459-2.491 19.972 0 34.131 10.007 42.435 29.978 6.685 16.65 10.007 49.95 10.007 99.9v62.407c0 13.328-5.855 20.013-17.48 20.013h-217.281c-16.65-106.585-59.915-202.292-129.837-287.203-21.674-19.972-42.476-22.463-62.448-7.515-16.65 16.692-15.82 35.833 2.491 57.466 79.929 98.198 119.872 206.444 119.872 324.656v52.441h-112.315c-19.972 1.661-30.809 14.117-32.47 37.452 1.661 23.293 12.498 35.791 32.47 37.452h209.766v49.95h-0.125zM4052.776 875.089c1.661 6.643 3.28 15.82 4.983 27.487 0 11.626 0.83 20.761 2.491 27.446 4.983 13.328 19.141 19.972 42.476 19.972 21.633-3.322 32.387-12.456 32.387-27.446s-1.661-30.809-4.983-47.459h42.476c23.293-1.661 35.75-13.328 37.452-34.961v-149.851l14.948 2.491c14.948 1.661 23.335-7.474 24.996-27.446 1.661-23.335-4.194-36.663-17.481-39.985l-19.972-2.491v-199.759c0-29.978-7.515-48.289-22.463-54.974-14.989-8.304-47.459-8.304-97.409 0-18.311 5.024-26.698 18.352-25.037 39.985 5.024 18.311 17.48 26.615 37.494 24.954 29.937-4.983 43.265-0.83 39.944 12.498v169.822l-24.954-2.491v-144.868c-1.702-13.328-10.879-20.802-27.487-22.463-18.311 1.661-28.359 9.135-29.978 22.463v144.868l-22.463-2.491c-1.702-86.614-10.879-158.196-27.487-214.79-8.304-26.615-24.124-38.283-47.5-34.961-23.293 6.685-31.639 23.335-24.954 49.95 21.633 71.583 32.428 136.522 32.428 194.777l-22.422-2.491c-11.668 1.661-18.352 13.328-20.013 34.961 0 19.972 5.855 30.809 17.48 32.47l24.996 2.491v159.857c0 28.276 13.287 42.435 39.985 42.435h40.068zM4050.243 807.658c-6.643 0-9.924-4.152-9.924-12.498v-114.848l102.392 7.474v104.883c1.661 11.668-0.872 16.65-7.557 14.989h-84.911zM4085.163 697.793l-4.941 7.474c-14.989 29.978-24.165 49.12-27.446 57.424-3.363 11.668 0.789 20.802 12.456 27.487 16.65 6.643 28.318 4.983 34.961-4.983 1.661-1.702 4.194-5.855 7.515-12.498 14.989-26.657 23.335-44.137 24.996-52.441 3.322-10.007-1.661-19.141-14.989-27.487-13.37-5.024-24.165-3.363-32.553 5.024zM4394.912 775.147c34.961 0 52.441-16.65 52.441-49.95v-267.19c0-8.346 2.491-12.498 7.474-12.498 11.667-1.661 16.65 3.322 14.989 14.989v87.361c1.661 11.626 11.626 17.48 29.978 17.48 18.269-1.661 27.446-8.346 27.446-19.972v-102.392c3.322-53.272-26.657-78.226-89.894-74.946-41.646-3.28-61.618 24.996-59.957 84.911v239.744c0 6.685-4.983 10.007-14.906 10.007h-30.020c-8.304 0-12.498-4.194-12.498-12.498 1.661-78.226 0-140.674-4.983-187.303s-14.159-86.572-27.487-119.872c-8.263-21.633-24.124-29.106-47.459-22.463-19.972 6.685-27.446 21.674-22.463 44.968 14.989 44.926 24.996 87.402 29.978 127.346 4.983 41.604 6.643 100.731 4.983 177.296-1.661 44.968 15.82 66.6 52.483 64.939l89.894 0.042zM4317.475 875.089v34.961c1.661 18.311 14.948 28.276 39.944 29.978 24.996-1.702 38.283-11.668 39.985-29.978v-34.961h87.361c19.972-1.661 30.767-13.328 32.47-34.961-1.702-23.335-11.668-35.791-29.978-37.452h-242.236c-14.989 1.661-23.377 14.117-25.037 37.452 1.661 21.633 10.007 33.3 25.037 34.961h72.455zM4826.942 880.071v37.452c1.661 16.65 14.948 25.826 39.985 27.487 24.954-1.661 38.283-10.837 39.944-27.487v-37.452h179.788c43.307 1.661 63.237-14.159 59.915-47.459 0-29.937-5.855-56.594-17.481-79.887 13.287 1.661 19.972-10.007 19.972-34.961 0-38.324-4.235-63.279-12.498-74.946-8.304-11.668-25.785-17.48-52.483-17.48h-107.374c-53.272-1.661-78.268 16.65-74.905 54.974v124.855h-67.431c-1.702-44.968-7.515-77.437-17.48-97.409-13.328-24.954-34.961-46.628-64.939-64.939-36.663-18.311-83.25-29.937-139.802-34.961-18.311 0-30.020 10.837-35.003 32.47 0 21.633 9.176 34.961 27.446 39.985 69.964 4.983 114.059 23.293 132.37 54.933 4.983 6.643 9.135 17.48 12.498 32.47 1.661 18.269 1.661 29.937 0 34.961h-72.413c-5.024 0-7.515-3.363-7.515-10.007v-52.441c-1.661-14.989-14.2-23.293-37.452-24.954-23.377 1.661-35.791 9.965-37.452 24.954v89.894c-1.702 33.3 14.989 49.95 49.95 49.95h182.362zM5101.606 592.868c21.633-1.661 33.342-14.159 35.003-37.452-1.661-24.954-13.328-38.283-35.003-39.944h-192.285v-69.922h214.79c19.972-1.702 30.767-13.328 32.428-34.961-1.661-23.293-11.667-35.791-29.937-37.452h-511.958c-18.311 1.661-28.318 14.159-29.978 37.452 1.661 21.633 12.498 33.259 32.428 34.961h212.257v69.922h-187.303c-19.972 1.661-30.767 14.989-32.428 39.944 3.28 23.293 14.948 35.791 34.961 37.452h457.026zM4976.751 807.658v-99.9c0-3.322 2.533-5.813 7.515-7.474h72.413c4.983 0 7.515 4.983 7.515 14.989 0 9.965 1.661 15.778 4.983 17.48-11.667 1.661-16.65 9.965-14.948 24.954 1.619 3.322 3.28 9.135 4.983 17.48 1.661 6.643 3.322 12.498 4.983 17.48 1.661 8.304-1.661 13.328-9.965 14.989h-77.479zM1577.314 277.596c75.403-3.654 114.557-20.802 117.381-51.445-1.453-19.557-12.124-29.978-32.013-31.183-7.142 0-16.442 1.827-27.736 5.522-19.93 6.104-39.155 9.176-57.673 9.176-64.026-3.695-98.115-39.196-102.433-106.544 4.318-64.898 38.407-99.153 102.433-102.807 18.477 0 38.449 4.277 59.749 12.83 12.789 4.9 22.048 7.349 27.736 7.349 21.342-1.204 33.425-12.249 36.29-33.051-1.412-33.051-42.684-50.199-123.775-51.403-116.634 6.104-179.206 62.407-187.76 168.909 8.595 107.748 71.168 165.297 187.801 172.646zM1739.289 238.981c1.37 23.252 14.906 35.501 40.525 36.705 25.619-1.204 39.155-13.453 40.566-36.705v-99.153h170.736v99.153c1.37 23.252 15.612 35.501 42.684 36.705 25.577-1.204 39.072-13.453 40.525-36.705v-268.103c-1.412-22.048-14.906-33.093-40.525-33.093-27.072 0-41.314 11.045-42.684 33.093v102.807h-170.736v-102.807c-1.37-22.048-14.906-33.093-40.566-33.093-25.577 0-39.113 11.045-40.525 33.093v268.103zM2123.361 238.981c1.412 23.252 14.948 35.501 40.608 36.705 25.536-1.204 39.072-13.453 40.525-36.705v-268.103c-1.412-22.048-14.948-33.093-40.525-33.093-25.619 0-39.155 11.045-40.608 33.093v268.103zM2249.213 238.981c1.412 23.252 14.865 35.501 40.525 36.705 14.242-1.204 25.619-6.726 34.172-16.526l172.853-198.306h2.118v178.127c1.412 23.252 14.948 35.501 40.566 36.705 25.577-1.204 39.072-13.453 40.566-36.705v-268.103c-1.453-22.048-14.948-33.093-40.566-33.093-14.242 0-25.577 4.277-34.131 12.872l-172.812 196.521h-2.159v-176.3c-1.453-22.048-14.948-33.093-40.608-33.093s-39.072 11.045-40.525 33.093v268.103zM2716.369 239.023c11.377 24.498 30.601 37.328 57.673 38.573 26.947 0 46.919-12.872 59.708-38.573l106.668-255.273c2.865-7.308 4.318-13.453 4.318-18.352-1.412-18.352-14.242-27.529-38.449-27.529-19.889 0-33.425 7.349-40.566 22.006l-14.906 44.096h-151.47l-17.065-44.096c-7.142-14.657-20.636-22.006-40.608-22.006-24.165 0-36.996 9.799-38.366 29.356 0 3.695 0.664 7.972 2.118 12.872v3.654l110.945 255.273zM2722.764 68.246h102.433l-51.154 135.899-51.279-135.899zM3115.68 231.549c0 26.947 13.453 40.4 40.525 40.4h136.605c24.165-1.246 36.996-11.626 38.407-31.224-1.412-20.844-14.242-31.847-38.407-33.051h-96.039v-67.929h89.645c24.165-1.246 37.701-12.249 40.566-33.093-2.823-20.802-16.401-31.805-40.566-33.051h-89.645v-71.583h100.316c24.165 0 36.996-10.422 38.449-31.224-1.453-20.844-14.283-31.847-38.449-33.093h-140.882c-25.577 1.246-39.072 12.872-40.525 34.919v258.927zM3456.862 239.023c11.377 24.498 30.56 37.328 57.632 38.573 26.989 0 46.961-12.872 59.708-38.573l106.71-255.273c2.823-7.308 4.277-13.453 4.277-18.352-1.412-18.352-14.242-27.529-38.449-27.529-19.889 0-33.383 7.349-40.525 22.006l-14.906 44.096h-151.512l-17.107-44.096c-7.1-14.657-20.553-22.006-40.525-22.006-24.207 0-36.996 9.799-38.407 29.356 0 3.695 0.706 7.972 2.159 12.872v3.654l110.945 255.273zM3463.256 68.246h102.433l-51.196 135.899-51.237-135.899zM3939.34 231.674c-1.453-22.048-13.536-33.674-36.29-34.919-5.73 0-15.654 1.868-29.895 5.522-17.065 4.9-31.307 7.349-42.642 7.349-28.525-1.246-43.39-11.003-44.843-29.356 0-13.494 20.636-25.12 61.908-34.919 66.808-4.9 107.416-39.777 121.616-104.675-5.688-66.102-52.649-100.98-140.84-104.675-86.821 1.246-130.875 17.73-132.329 49.577 1.412 20.844 13.536 31.847 36.29 33.051 7.1 0 19.889-2.408 38.366-7.308 22.837-7.349 40.608-11.003 53.396-11.003 35.542 1.204 54.019 14.657 55.473 40.359 0 14.699-22.795 28.151-68.303 40.4-64.026 4.9-101.686 34.919-113.146 89.977 5.73 66.102 50.573 101.644 134.446 106.544 68.386-3.695 103.886-18.975 106.793-45.923zM4067.682 207.716h-59.708c-19.93 0-30.601 11.003-32.013 33.051 1.412 19.598 12.083 29.978 32.013 31.224h202.707c22.754-1.246 34.878-11.626 36.29-31.224-1.412-20.844-13.536-31.847-36.29-33.051h-59.708v-236.879c-1.412-22.048-15.695-33.093-42.684-33.093-25.619 0-39.113 11.045-40.566 33.093v236.879h-0.042zM4263.705 231.549c0 26.947 13.536 40.4 40.525 40.4h136.605c24.165-1.246 37.037-11.626 38.407-31.224-1.37-20.844-14.242-31.847-38.407-33.051h-96.039v-67.929h89.645c24.124-1.246 37.618-12.249 40.525-33.093-2.865-20.802-16.401-31.805-40.525-33.051h-89.645v-71.583h100.274c24.207 0 37.037-10.422 38.449-31.224-1.412-20.844-14.242-31.847-38.449-33.093h-140.882c-25.577 1.246-39.072 12.872-40.525 34.919v258.927h0.042zM4515.532 235.245c0 24.456 13.494 36.705 40.566 36.705h96.039c91.056 0 136.564-35.501 136.564-106.502-1.412-47.75-34.836-77.147-100.274-88.15l91.762-86.323c8.512-6.145 12.083-12.83 10.671-20.179-2.823-20.844-16.359-31.847-40.525-33.051-14.242 0-24.954 3.031-32.054 9.176l-121.616 126.682v-102.807c-1.412-22.048-14.948-33.051-40.566-33.051s-39.113 11.003-40.566 33.051v264.45zM4596.623 125.047h55.473c32.719 1.204 49.784 14.657 51.196 40.4-1.412 26.947-18.477 40.982-51.196 42.227h-55.473v-82.628zM4814.195 238.981c1.37 23.252 14.865 35.501 40.525 36.705 14.242-1.204 25.619-6.726 34.172-16.526l172.812-198.306h2.159v178.127c1.412 23.252 14.865 35.501 40.525 36.705 25.619-1.204 39.113-13.453 40.608-36.705v-268.103c-1.453-22.048-14.948-33.093-40.608-33.093-14.242 0-25.619 4.277-34.089 12.872l-172.853 196.521h-2.159v-176.3c-1.412-22.048-14.906-33.093-40.566-33.093s-39.113 11.045-40.525 33.093v268.103z" />
<glyph unicode="&#xe941;" glyph-name="bzmh" horiz-adv-x="3232" d="M1596.47 207.639c9.264-6.62 12.57-15.882 7.939-26.469-5.294-9.268-14.557-11.249-26.469-5.956-24.481 12.569-69.48 28.451-134.985 48.963-12.574 3.974-17.869 11.249-16.544 22.499 3.97 10.587 13.233 15.22 26.469 12.574 54.924-16.543 102.567-33.748 143.59-51.611v0zM1320.538 406.148h138.959v30.438h-138.959v-30.438zM1320.538 469.671h138.959v28.456h-138.959v-28.456zM1408.543 214.252c3.974-44.994-27.792-57.568-95.949-39.038-7.938 2.644-10.587 9.925-7.938 22.494 2.644 9.269 8.6 13.9 18.526 12.575 32.424-7.939 48.304-6.618 46.979 3.969v128.372c0 10.587 6.62 16.543 20.518 16.543 12.569 0 18.525-5.294 18.525-16.543v-128.372h-0.662zM1230.546 534.52c0-5.294 3.306-7.943 9.925-7.943h300.415c6.618-1.319 9.268 0.662 7.943 5.956v18.531h-318.945v-16.544h0.662zM1230.546 579.514h318.945v12.574c0 9.264-3.974 14.557-12.575 14.557h-296.445c-6.618 0-9.925-4.631-9.925-14.557v-12.574zM1352.962 271.162c3.969-9.268 1.319-18.531-7.943-26.469-54.261-28.455-105.211-46.324-150.867-52.937-10.587-1.325-18.53 2.644-22.499 12.57-1.325 10.587 3.306 17.205 14.556 18.53 60.217 13.894 107.198 31.761 140.948 54.918 10.587 4.631 19.187 2.649 25.805-6.613v0zM1547.503 635.1c24.481-1.325 37.717-15.881 39.042-43.012v-61.537c1.319-23.161-9.268-33.748-32.424-32.424h-56.906v-28.456h108.518c12.574 0 19.187-5.294 20.512-16.543-1.325-10.587-7.938-16.543-20.512-16.543h-108.518v-30.438h121.754c10.587 0 16.538-5.294 16.538-16.543s-5.294-16.543-16.538-16.543h-103.892c28.456-27.131 66.836-51.612 114.479-73.45 10.587-5.294 14.556-14.556 9.925-26.468-3.974-9.262-12.574-12.57-24.486-7.938-31.1 13.894-60.874 29.774-88.006 48.961-25.805-17.862-52.274-31.099-79.404-41.024-10.587-2.644-18.53 0.662-22.5 9.925-2.644 10.587 0.662 18.53 9.926 22.499 28.455 12.574 48.967 23.163 61.542 32.425-3.974 5.294-14.563 17.205-30.443 34.407h-153.517c-12.569-15.22-25.805-29.113-41.024-43.007 16.543-11.251 27.13-18.531 32.424-22.5 9.262-9.262 11.249-19.192 5.956-28.455-7.943-7.938-17.868-7.938-28.455 0-2.644 2.649-6.618 5.956-12.569 9.925-9.268 6.618-18.531 13.899-26.469 20.512-20.517-13.894-47.643-25.805-81.391-37.055-12.574-2.644-20.513 1.325-24.482 12.574-2.649 13.894 1.319 21.837 12.57 24.481 44.998 9.268 83.373 30.443 114.479 63.525h-99.923c-10.587 1.325-16.539 6.618-16.539 16.543 0 10.587 5.952 16.543 18.526 16.543h118.448v30.438h-108.523c-9.262 0-15.218 5.294-16.543 16.543 0 10.587 4.631 16.543 14.561 16.543h110.505v28.456h-55.586c-24.481-1.325-36.394 9.262-34.407 32.424v66.168c0 25.807 13.233 39.043 39.038 39.043h314.314zM1941.222 594.075h163.44c10.588 0 17.207-6.618 18.526-20.512 0-12.574-5.294-19.192-16.539-20.517h-165.427v-61.537h185.94c12.569 0 19.187-6.62 20.512-20.513-1.325-13.899-7.943-20.512-20.512-20.512h-185.94v-79.406h161.453c10.588 0 16.544-5.956 16.544-18.53 0-13.894-5.294-20.512-16.544-20.512h-161.453v-106.536c44.992-6.618 111.828-8.6 200.496-5.956 10.587-1.319 17.205-8.6 18.525-22.495-1.319-13.899-7.275-21.174-18.525-22.499-73.449-1.325-131.016 0.662-171.384 5.956-39.7 5.294-72.124 15.218-97.93 28.451-42.348 20.512-74.111 48.304-95.947 84.036-17.869-46.318-46.318-84.036-86.024-112.486-11.249-7.943-20.512-7.281-28.455 1.982-6.614 9.268-5.952 19.192 1.987 28.456 58.23 46.317 90.654 113.811 95.947 202.483 1.325 12.569 8.601 18.526 22.5 18.526 13.894-1.325 20.512-8.601 20.512-22.5-1.325-20.512-3.969-41.687-7.943-63.524 19.192-47.643 53.599-84.036 103.892-108.518v213.734h-204.471c-12.569 0-19.187 6.613-20.512 20.512 0 12.569 5.956 19.188 18.53 20.513h206.453v61.537h-178.002c-10.588 0-16.544 6.618-16.544 20.512 0 13.899 5.294 20.517 16.544 20.517h178.002v37.056c1.319 10.587 8.6 17.2 22.494 18.525 12.574-1.325 19.194-7.281 20.518-18.525v-37.718h-0.662zM2594.985 630.468c28.456 2.644 41.687-7.943 39.043-32.425v-69.48c1.325-20.512-9.925-29.774-34.412-28.455h-253.433c-25.807-1.319-38.375 9.93-37.056 34.411v65.511c-2.644 21.833 9.925 31.763 39.043 30.438h246.814zM2587.047 530.551c6.618 0 9.925 3.306 9.925 9.925v12.57h-251.451v-14.557c0-5.294 3.312-7.938 9.93-7.938h231.596zM2346.184 579.514h249.464v9.93c0 7.938-2.644 11.245-7.938 9.925h-230.939c-6.613 0-9.925-2.649-9.925-7.943v-11.912h-0.662zM2621.454 475.627c24.486 0 37.055-11.912 37.055-34.411v-48.963c1.325-21.838-10.587-31.763-37.055-30.443h-296.446c-24.481-1.319-36.392 9.93-34.405 34.412v48.968c-2.649 21.837 9.262 31.761 37.055 30.437h293.797zM2549.991 395.56h56.906c9.264-1.325 13.895 2.649 12.575 12.574v22.495c1.319 7.943-2.649 11.249-12.575 9.93h-56.906v-44.999zM2440.149 395.56h69.476v44.999h-69.476v-44.999zM2342.215 440.559c-9.264 0-14.557-3.974-14.557-12.575v-20.512c0-7.943 4.631-12.574 14.557-12.574h59.555v44.999h-59.555v0.662zM2591.016 336.668c19.187 0 31.763-5.956 39.043-18.526 5.294-11.249 1.982-21.837-9.925-32.424-20.518-15.218-51.617-32.425-93.967-52.937 43.674-7.943 90.655-15.218 140.946-20.512 12.57-1.325 18.526-7.943 18.526-20.513-2.644-12.574-9.925-18.53-22.5-18.53-58.887 5.294-119.767 18.53-183.953 39.043-58.893-17.869-119.767-30.443-183.953-39.043-13.894 0-21.175 5.294-22.5 16.543 0 12.574 5.957 19.188 18.531 20.513 54.256 5.294 99.916 11.249 136.972 18.53-17.868 5.294-43.674 15.881-77.423 30.437-10.587 5.295-13.894 14.557-7.938 26.469 5.294 9.262 14.556 11.249 26.468 5.956 37.056-16.543 72.786-30.442 108.518-43.012 42.35 17.864 68.817 30.438 79.406 39.038 3.974 2.649 5.956 5.294 5.956 7.943-1.319 1.325-3.969 1.987-7.939 1.987h-221.671c-9.268 0-15.218 5.951-16.543 18.525 0 12.575 4.631 19.188 14.556 20.513h259.39zM2290.603 577.532c7.938-10.587 7.938-21.174 0-30.437-9.262-9.269-19.194-9.269-28.456 0-10.587 12.569-26.468 26.468-46.981 43.005-9.262 7.943-9.925 17.869-1.987 28.456 7.944 7.943 17.869 8.6 28.456 1.987 19.187-13.899 35.731-27.794 48.968-43.012zM2266.115 451.147c9.268-9.268 10.588-19.855 3.974-30.443-9.268-9.262-19.192-9.925-28.455-1.982-9.262 9.262-23.82 20.513-43.012 32.425-3.969 3.969-7.275 6.613-9.925 7.938-7.938 6.618-8.6 15.881-1.987 26.468 6.618 9.264 15.224 11.251 24.486 5.957 21.838-10.588 40.363-24.482 54.918-40.363zM2268.103 369.091c12.575-3.969 17.207-13.894 14.557-28.455-15.22-66.83-35.731-120.429-61.537-161.454-7.944-10.587-18.531-13.236-30.438-5.956-10.587 6.618-13.236 16.543-5.956 28.455 27.13 43.669 46.318 93.299 56.906 148.885 3.969 15.218 13.236 21.174 26.468 18.525zM3064.801 524.595c23.157 1.325 33.744-11.912 32.425-39.043v-173.366c1.319-25.805-10.587-38.379-37.056-37.055h-189.914c-28.451-1.325-42.35 10.587-41.025 37.055v175.353c-2.644 25.807 9.925 38.381 39.043 37.056h196.527zM2979.441 379.68v-63.525h61.537c10.587 0 16.543 5.957 16.543 18.531v44.994h-78.080zM2979.441 418.059h77.417v46.981c0 12.574-5.294 18.53-16.543 18.53h-61.537v-65.511h0.662zM2870.918 379.68v-44.994c0-12.574 5.956-18.531 18.53-18.531h50.95v63.525h-69.48zM2887.461 483.57c-10.587 0-16.543-5.956-16.543-18.53v-46.981h69.48v65.511h-52.937zM2795.488 234.106c-1.325-10.587 5.294-15.881 20.512-14.561h296.445c13.895-1.319 19.851 3.974 18.526 16.543v292.476c0 13.895 6.618 21.175 20.512 22.5 12.574 0 19.192-6.618 20.512-20.513v-312.325c1.325-27.131-12.569-40.368-41.024-39.043h-332.838c-31.1-2.649-45.656 9.262-43.012 37.056v320.268c0 12.57 6.618 19.188 20.512 20.513 13.9-1.325 20.513-7.943 20.513-20.513v-302.401h-0.657zM2731.959 579.513c-12.57 0-19.188 6.618-20.513 20.517 1.325 13.895 7.943 20.513 20.513 20.513h459.891c12.569-1.325 18.525-7.943 18.525-20.513-1.325-13.899-7.938-20.517-20.512-20.517h-457.904zM969.169 173.889c-5.294 74.773-9.262 150.21-17.205 224.978-7.275 67.498-21.174 133.666-60.874 192.558-23.824 35.731-50.95 71.468-63.524 111.167-27.131 89.33-76.098 131.68-170.060 127.711-106.536-4.633-213.071-12.575-319.607-17.207-11.906-0.662-23.818 9.925-35.73 14.561 90.654 25.144 120.429 49.625 119.11 103.224h-0.662c-27.794-39.042-59.555-70.142-115.798-52.274 0 38.381 20.512 54.924 56.243 55.581 19.849 0 39.042-1.982 58.893-3.306 0 0.662 0.662 0.662 0.662 0.662v-0.662h1.319c-58.23 43.674-64.182 42.35-144.911-32.424-16.543 9.262-33.748 21.174-52.274 28.455-32.424 13.233-88.010-9.262-87.347-39.704 1.325-20.513 33.086-42.35 54.924-58.893 9.262-6.614 28.449 0.662 42.348-1.983 14.557-3.312 28.451-10.587 42.35-16.543-9.925-9.925-17.868-23.824-29.779-29.774-185.279-89.993-273.946-290.494-240.198-497.61 30.438-185.278 250.128-335.483 418.862-343.425 176.672-7.938 334.163 37.055 483.047 127.048 43.669 25.148 64.181 59.555 60.212 107.86zM904.982 105.734c-44.331-44.999-95.947-82.055-166.085-56.248-13.899 4.636-27.13 9.93-41.029 14.561-82.050 30.438-103.224 64.843-82.712 149.542 14.556 60.217 15.218 114.479-18.53 170.722-14.556 24.486-9.925 60.88-13.894 91.316-26.469-18.53-33.75-75.436-9.264-117.123 25.144-43.674 27.131-88.004 13.233-133.666-29.113-98.593 12.574-171.379 112.492-195.204 13.236-3.306 27.13-6.618 44.998-10.587-249.464-101.242-439.373-66.83-611.419 103.892-72.787 72.124-87.343 171.379-86.686 270.634 1.987 120.435 41.693 224.983 140.285 299.756 28.455 21.838 64.186 33.75 97.272 48.306 76.094 33.744 151.529 72.124 239.535 60.874 7.943-1.319 16.543-2.644 31.761-4.631-17.862-30.438-31.099-53.599-45.656-79.404-12.574 4.631-23.824 11.249-36.392 13.899-35.074 7.275-70.806 19.187-105.873 16.538-58.893-3.969-106.536-35.068-127.049-91.312-20.512-56.909 3.97-105.21 45.656-144.253 64.186-59.555 141.605-70.142 218.365-39.706 36.394 14.561 61.537 57.573 92.637 88.673 0-0.662 3.974-7.943 14.561-27.131 6.613 12.57 9.262 21.838 15.218 27.794 53.599 56.906 157.485 68.817 220.347 23.156 13.899-9.925 25.15-29.112 28.456-46.318 5.956-32.424 8.6-66.173 8.6-99.254 0-65.511 0-128.374 31.099-190.573 21.838-46.985 30.443-103.229-9.925-144.253zM881.164 263.882c-31.763 60.217-41.687 120.429-19.192 187.922 15.224 44.999-15.22 76.098-50.287 100.585-33.087 23.156-64.85 17.862-95.949-5.294-43.012-31.763-53.599-108.523-27.794-165.428 11.913-26.469 15.882-57.568 16.544-86.686 1.325-29.774-5.956-60.217-8.601-78.742-1.987-72.125 19.188-101.242 72.787-111.167 92.641-17.869 138.297 27.792 122.416 121.754-1.325 11.912-3.969 25.143-9.925 37.056zM848.739 145.433c-8.6 0-23.824 4.633-23.824 12.575 0 7.281 15.881 15.218 23.824 15.218 8.6 0 21.838-5.294 21.838-13.231 0-7.943-13.238-14.563-21.838-14.563zM794.478 136.833c-9.925 0-24.481 8.6-24.481 17.869 0 9.262 15.218 15.881 24.481 15.881s25.144-6.618 25.144-15.881c0-9.269-15.882-17.869-25.144-17.869zM723.016 179.182c-11.912-0.662-7.943 45.656-7.943 45.656s63.524 0.662 75.436 0c11.912-0.662 43.012-43.669 43.012-43.669s-98.598-1.325-110.505-1.987zM725.661 147.42c-21.837 20.513 23.161 23.163 23.161 23.163 23.82-33.087-1.325-43.674-23.161-23.163zM733.604 511.359c25.807-23.157 0-51.612 0-51.612s-23.161 7.938-23.824 24.481c-0.662 17.207 23.824 27.131 23.824 27.131zM764.041 529.889c9.262 1.325 18.525-1.987 23.161-10.587 4.631-8.605 3.969-22.499 3.969-22.499s0.662-23.163-19.192-21.838c-9.262 0.662-17.862 11.912-17.862 23.825 0.662 15.218 9.925 31.099 9.925 31.099zM803.083 523.27c0 0 16.539-1.325 19.851-11.912 3.306-10.587 6.618-21.837-12.574-21.174-19.188 0-7.277 33.086-7.277 33.086zM368.999 20.372c-7.275 3.306-15.22 5.956-23.157 10.587-8.605 3.97-17.205 8.601-26.468 13.895s-18.53 11.249-28.456 17.868c-9.262 6.618-19.187 13.894-28.449 21.837-9.268 7.939-19.192 15.882-27.794 24.482-9.262 8.605-17.205 17.868-25.805 26.468-7.943 9.262-15.881 18.531-23.161 27.131-7.939 9.262-14.557 18.53-21.175 26.468-6.618 8.6-12.574 17.207-17.868 24.482-21.833 30.442-35.069 52.28-35.069 52.28s7.281-24.487 25.807-58.23c4.631-8.607 9.925-17.207 15.881-26.469 5.956-9.268 12.574-18.53 19.849-28.455 7.281-9.926 15.225-19.188 23.163-28.456 8.6-9.262 17.868-18.525 27.13-27.13 9.262-8.601 19.188-17.201 29.113-25.144 9.93-7.938 20.517-15.218 30.442-21.174 20.513-12.569 41.025-22.5 58.893-28.451 9.262-3.974 17.864-5.294 25.144-7.943 7.938-1.987 14.556-3.306 19.849-3.969 11.249-1.325 17.205-2.649 17.205-2.649s-5.956 1.987-16.543 5.294c-5.294 2.649-11.912 5.294-18.53 7.281zM163.208 885.89c29.781 25.143 62.861 20.512 115.798-17.869-41.025-29.117-86.017-21.174-115.798 17.869zM382.235 488.864c18.525 13.233 30.438 34.407 30.438 58.232 0 39.699-32.425 71.461-71.463 71.461-31.099 0-57.568-19.851-67.498-47.643-26.468 92.642 50.293 168.072 145.579 148.885 64.186-12.575 108.518-51.612 137.635-108.523 17.868-34.407-0.662-83.375-39.706-107.855-41.686-24.487-85.355-33.087-136.31-19.851 0.662 1.982 0.662 3.969 1.325 5.294zM709.118 798.541v-1.987c-24.482-9.925-41.687-34.407-41.687-62.199 0-37.718 30.438-67.493 67.493-67.493 23.825 0 44.337 11.912 56.248 29.774 4.631-25.805 0.662-49.625-31.099-48.963-56.911 1.319-105.216-13.236-152.859-67.498-18.525 66.173-85.356 104.554-44.994 174.691 23.163 41.687 77.419 57.568 146.898 43.674zM547.001 832.29c1.982 0 5.294 0.662 7.275 1.982 0.662 0.662 63.524 41.686 106.536 16.543 5.956-3.306 13.899-1.325 17.868 4.631 3.306 6.618 1.325 14.561-4.631 17.868-56.906 32.425-131.016-15.881-134.328-17.868-5.956-3.969-7.275-11.906-3.306-17.862 2.644-3.312 6.618-5.294 10.587-5.294z" />
<glyph unicode="&#xe942;" glyph-name="absolut" horiz-adv-x="4928" d="M337.518 296.362l47.633 315.833 45.943-315.833h-93.576zM737.681-10.335c0 0-192.979 895.968-197.142 918.432-4.188 22.439 3.33 30.773 3.33 30.773h-314.963c10.849-8.333 3.33-29.919 3.33-29.919s-203.828-886.028-210.514-914.291c-6.686-28.237-21.722-34.061-21.722-34.061h296.571c-7.518 6.651-5.853 27.434-5.853 27.434l19.225 129.666h147.037c0 0 15.037-105.57 17.534-128.838s-5.853-28.263-5.853-28.263h287.387c-10.849 4.116-18.367 29.066-18.367 29.066zM1228.921 465.937c0 0 173.78 19.101 167.926 241.035-8.351 242.691-308.277 230.242-308.277 230.242h-328.309c7.518-8.308 10.016-36.571 10.016-36.571v-905.155c0-18.298-9.183-36.571-9.183-36.571h365.094c93.576 0 311.633 39.909 305.78 268.469s-203.046 238.55-203.046 238.55zM1039.297 171.69v201.151c0 0 111.11 18.298 111.11-101.404s-111.11-99.747-111.11-99.747zM1141.199 649.618c5.021-106.399-92.743-98.919-99.404-98.919 0 97.262-1.665 188.676-1.665 188.676s96.073 16.616 101.069-89.757zM1793.705 605.543c-51.846 41.315-78.539 116.363 18.392 124.671 102.734-0.803 169.592-66.49 169.592-66.49v258.504c-7.518-6.651-20.032-7.48-35.927-0.828s-51.796 19.929-90.245 27.434c-123.624 23.268-221.387-4.167-278.204-45.707-56.791-41.566-96.906-85.616-103.592-222.762s51.392-195.654 131.167-275.121c93.399-71.209 120.319-97.237 144.539-127.156 28.408-28.263 30.073-93.899-63.502-103.060-96.906-3.313-211.346 96.409-211.346 96.409v-278.434c10.016 6.651 27.576 0 66-20.783 92.743-51.53 265.665-51.53 375.11 22.439s143.706 255.994 111.11 364.050c-32.596 108.030-143.757 175.7-233.094 246.833zM2421.94 958.8c0 0-364.665 50.752-364.665-507.772 0-558.499 364.665-513.47 364.665-513.47s365.422-31.551 365.422 513.47c0 545.045-365.422 507.772-365.422 507.772zM2421.94 166.946c0 0-87.319-33.433-87.319 284.081 0 317.54 87.319 292.59 87.319 292.59s83.080 24.749 83.080-292.59c0-317.339-83.080-284.081-83.080-284.081zM3121.222 189.135v714.796c0 24.096 7.518 34.086 7.518 34.086h-291.575c12.539-17.47 9.183-36.571 9.183-36.571v-900.16c0-34.914-9.183-39.884-9.183-39.884h482.057v237.722c-8.351-8.308-35.094-9.965-35.094-9.965l-162.906-0.025zM3757.834 898.961v-668.261c0 0 1.262-70.656-69.734-70.656s-78.312 70.656-78.312 70.656v672.403c0 27.434 9.183 34.914 9.183 34.914h-283.855c7.518-4.167 10.874-34.914 10.874-34.914v-672.403c0 0 6.913-293.393 336.913-293.393s334.793 295.050 334.793 295.050v672.428c0 19.101 8.376 31.576 8.376 31.576h-279.036c9.133-9.99 10.798-37.399 10.798-37.399zM4057.76 700.32c14.204 9.136 35.927 8.308 35.927 8.308h124.482v-712.312c0-27.434-8.351-35.742-8.351-35.742h292.408c-9.183 9.136-9.183 37.399-9.183 37.399v710.655h127.004c20.89 0 31.738-8.308 31.738-8.308v236.868h-593.999v-236.868h-0.025zM4793.775 955.411c-52.351 0-96.628-40.085-96.628-94.426 0-54.843 44.278-94.878 96.628-94.878 51.871 0 96.149 40.060 96.149 94.878 0 54.341-44.303 94.426-96.149 94.426zM4793.775 781.87c-43.546 0-77.505 33.559-77.505 79.115 0 44.829 33.959 78.613 77.505 78.613 43.041 0 77.025-33.785 77.025-78.613-0.025-45.556-33.984-79.115-77.025-79.115zM4837.574 884.278c0 21.536-12.842 31.049-38.752 31.049h-41.78v-109.185h16.601v47.339h19.149l28.913-47.339h18.619l-31.183 48.092c16.096 2.008 28.433 10.517 28.433 30.045zM4773.642 867.511v33.785h22.656c11.555 0 23.892-2.51 23.892-16.014 0-16.767-12.589-17.771-26.693-17.771h-19.855z" />
</font>
</defs>
</svg>
